<?xml version="1.0" encoding="utf-8" standalone="no"?>
<!DOCTYPE svg PUBLIC "-//W3C//DTD SVG 1.1//EN"
  "http://www.w3.org/Graphics/SVG/1.1/DTD/svg11.dtd">
<svg xmlns:xlink="http://www.w3.org/1999/xlink" width="497.605826pt" height="275.831375pt" viewBox="0 0 497.605826 275.831375" xmlns="http://www.w3.org/2000/svg" version="1.1">
 <metadata>
  <rdf:RDF xmlns:dc="http://purl.org/dc/elements/1.1/" xmlns:cc="http://creativecommons.org/ns#" xmlns:rdf="http://www.w3.org/1999/02/22-rdf-syntax-ns#">
   <cc:Work>
    <dc:type rdf:resource="http://purl.org/dc/dcmitype/StillImage"/>
    <dc:date>2026-06-07T04:21:30.367312</dc:date>
    <dc:format>image/svg+xml</dc:format>
    <dc:creator>
     <cc:Agent>
      <dc:title>Matplotlib v3.10.8, https://matplotlib.org/</dc:title>
     </cc:Agent>
    </dc:creator>
   </cc:Work>
  </rdf:RDF>
 </metadata>
 <defs>
  <style type="text/css">*{stroke-linejoin: round; stroke-linecap: butt}</style>
 </defs>
 <g id="figure_1">
  <g id="patch_1">
   <path d="M 0 275.831375 
L 497.605826 275.831375 
L 497.605826 0 
L 0 0 
z
" style="fill: #ffffff"/>
  </g>
  <g id="axes_1">
   <g id="patch_2">
    <path d="M 49.842188 236.3395 
L 486.645089 236.3395 
L 486.645089 35.7555 
L 49.842188 35.7555 
z
" style="fill: #ffffff"/>
   </g>
   <g id="patch_3">
    <path d="M 69.696865 236.3395 
L 77.800815 236.3395 
L 77.800815 236.3395 
L 69.696865 236.3395 
z
" clip-path="url(#pb5382152c9)" style="fill: #2563eb; opacity: 0.75; stroke: #ffffff; stroke-width: 0.4; stroke-linejoin: miter"/>
   </g>
   <g id="patch_4">
    <path d="M 77.800815 236.3395 
L 85.904765 236.3395 
L 85.904765 236.3395 
L 77.800815 236.3395 
z
" clip-path="url(#pb5382152c9)" style="fill: #2563eb; opacity: 0.75; stroke: #ffffff; stroke-width: 0.4; stroke-linejoin: miter"/>
   </g>
   <g id="patch_5">
    <path d="M 85.904765 236.3395 
L 94.008715 236.3395 
L 94.008715 236.3395 
L 85.904765 236.3395 
z
" clip-path="url(#pb5382152c9)" style="fill: #2563eb; opacity: 0.75; stroke: #ffffff; stroke-width: 0.4; stroke-linejoin: miter"/>
   </g>
   <g id="patch_6">
    <path d="M 94.008715 236.3395 
L 102.112665 236.3395 
L 102.112665 236.3395 
L 94.008715 236.3395 
z
" clip-path="url(#pb5382152c9)" style="fill: #2563eb; opacity: 0.75; stroke: #ffffff; stroke-width: 0.4; stroke-linejoin: miter"/>
   </g>
   <g id="patch_7">
    <path d="M 102.112665 236.3395 
L 110.216614 236.3395 
L 110.216614 236.3395 
L 102.112665 236.3395 
z
" clip-path="url(#pb5382152c9)" style="fill: #2563eb; opacity: 0.75; stroke: #ffffff; stroke-width: 0.4; stroke-linejoin: miter"/>
   </g>
   <g id="patch_8">
    <path d="M 110.216614 236.3395 
L 118.320564 236.3395 
L 118.320564 236.3395 
L 110.216614 236.3395 
z
" clip-path="url(#pb5382152c9)" style="fill: #2563eb; opacity: 0.75; stroke: #ffffff; stroke-width: 0.4; stroke-linejoin: miter"/>
   </g>
   <g id="patch_9">
    <path d="M 118.320564 236.3395 
L 126.424514 236.3395 
L 126.424514 234.429176 
L 118.320564 234.429176 
z
" clip-path="url(#pb5382152c9)" style="fill: #2563eb; opacity: 0.75; stroke: #ffffff; stroke-width: 0.4; stroke-linejoin: miter"/>
   </g>
   <g id="patch_10">
    <path d="M 126.424514 236.3395 
L 134.528464 236.3395 
L 134.528464 233.474014 
L 126.424514 233.474014 
z
" clip-path="url(#pb5382152c9)" style="fill: #2563eb; opacity: 0.75; stroke: #ffffff; stroke-width: 0.4; stroke-linejoin: miter"/>
   </g>
   <g id="patch_11">
    <path d="M 134.528464 236.3395 
L 142.632414 236.3395 
L 142.632414 235.384338 
L 134.528464 235.384338 
z
" clip-path="url(#pb5382152c9)" style="fill: #2563eb; opacity: 0.75; stroke: #ffffff; stroke-width: 0.4; stroke-linejoin: miter"/>
   </g>
   <g id="patch_12">
    <path d="M 142.632414 236.3395 
L 150.736364 236.3395 
L 150.736364 234.429176 
L 142.632414 234.429176 
z
" clip-path="url(#pb5382152c9)" style="fill: #2563eb; opacity: 0.75; stroke: #ffffff; stroke-width: 0.4; stroke-linejoin: miter"/>
   </g>
   <g id="patch_13">
    <path d="M 150.736364 236.3395 
L 158.840314 236.3395 
L 158.840314 233.474014 
L 150.736364 233.474014 
z
" clip-path="url(#pb5382152c9)" style="fill: #2563eb; opacity: 0.75; stroke: #ffffff; stroke-width: 0.4; stroke-linejoin: miter"/>
   </g>
   <g id="patch_14">
    <path d="M 158.840314 236.3395 
L 166.944264 236.3395 
L 166.944264 234.429176 
L 158.840314 234.429176 
z
" clip-path="url(#pb5382152c9)" style="fill: #2563eb; opacity: 0.75; stroke: #ffffff; stroke-width: 0.4; stroke-linejoin: miter"/>
   </g>
   <g id="patch_15">
    <path d="M 166.944264 236.3395 
L 175.048214 236.3395 
L 175.048214 224.877557 
L 166.944264 224.877557 
z
" clip-path="url(#pb5382152c9)" style="fill: #2563eb; opacity: 0.75; stroke: #ffffff; stroke-width: 0.4; stroke-linejoin: miter"/>
   </g>
   <g id="patch_16">
    <path d="M 175.048214 236.3395 
L 183.152164 236.3395 
L 183.152164 224.877557 
L 175.048214 224.877557 
z
" clip-path="url(#pb5382152c9)" style="fill: #2563eb; opacity: 0.75; stroke: #ffffff; stroke-width: 0.4; stroke-linejoin: miter"/>
   </g>
   <g id="patch_17">
    <path d="M 183.152164 236.3395 
L 191.256114 236.3395 
L 191.256114 208.639805 
L 183.152164 208.639805 
z
" clip-path="url(#pb5382152c9)" style="fill: #2563eb; opacity: 0.75; stroke: #ffffff; stroke-width: 0.4; stroke-linejoin: miter"/>
   </g>
   <g id="patch_18">
    <path d="M 191.256114 236.3395 
L 199.360064 236.3395 
L 199.360064 222.012071 
L 191.256114 222.012071 
z
" clip-path="url(#pb5382152c9)" style="fill: #2563eb; opacity: 0.75; stroke: #ffffff; stroke-width: 0.4; stroke-linejoin: miter"/>
   </g>
   <g id="patch_19">
    <path d="M 199.360064 236.3395 
L 207.464014 236.3395 
L 207.464014 200.043348 
L 199.360064 200.043348 
z
" clip-path="url(#pb5382152c9)" style="fill: #2563eb; opacity: 0.75; stroke: #ffffff; stroke-width: 0.4; stroke-linejoin: miter"/>
   </g>
   <g id="patch_20">
    <path d="M 207.464014 236.3395 
L 215.567964 236.3395 
L 215.567964 185.715919 
L 207.464014 185.715919 
z
" clip-path="url(#pb5382152c9)" style="fill: #2563eb; opacity: 0.75; stroke: #ffffff; stroke-width: 0.4; stroke-linejoin: miter"/>
   </g>
   <g id="patch_21">
    <path d="M 215.567964 236.3395 
L 223.671913 236.3395 
L 223.671913 187.626243 
L 215.567964 187.626243 
z
" clip-path="url(#pb5382152c9)" style="fill: #2563eb; opacity: 0.75; stroke: #ffffff; stroke-width: 0.4; stroke-linejoin: miter"/>
   </g>
   <g id="patch_22">
    <path d="M 223.671913 236.3395 
L 231.775863 236.3395 
L 231.775863 174.253976 
L 223.671913 174.253976 
z
" clip-path="url(#pb5382152c9)" style="fill: #2563eb; opacity: 0.75; stroke: #ffffff; stroke-width: 0.4; stroke-linejoin: miter"/>
   </g>
   <g id="patch_23">
    <path d="M 231.775863 236.3395 
L 239.879813 236.3395 
L 239.879813 146.554281 
L 231.775863 146.554281 
z
" clip-path="url(#pb5382152c9)" style="fill: #2563eb; opacity: 0.75; stroke: #ffffff; stroke-width: 0.4; stroke-linejoin: miter"/>
   </g>
   <g id="patch_24">
    <path d="M 239.879813 236.3395 
L 247.983763 236.3395 
L 247.983763 152.285252 
L 239.879813 152.285252 
z
" clip-path="url(#pb5382152c9)" style="fill: #2563eb; opacity: 0.75; stroke: #ffffff; stroke-width: 0.4; stroke-linejoin: miter"/>
   </g>
   <g id="patch_25">
    <path d="M 247.983763 236.3395 
L 256.087713 236.3395 
L 256.087713 140.82331 
L 247.983763 140.82331 
z
" clip-path="url(#pb5382152c9)" style="fill: #2563eb; opacity: 0.75; stroke: #ffffff; stroke-width: 0.4; stroke-linejoin: miter"/>
   </g>
   <g id="patch_26">
    <path d="M 256.087713 236.3395 
L 264.191663 236.3395 
L 264.191663 115.9891 
L 256.087713 115.9891 
z
" clip-path="url(#pb5382152c9)" style="fill: #2563eb; opacity: 0.75; stroke: #ffffff; stroke-width: 0.4; stroke-linejoin: miter"/>
   </g>
   <g id="patch_27">
    <path d="M 264.191663 236.3395 
L 272.295613 236.3395 
L 272.295613 88.289405 
L 264.191663 88.289405 
z
" clip-path="url(#pb5382152c9)" style="fill: #2563eb; opacity: 0.75; stroke: #ffffff; stroke-width: 0.4; stroke-linejoin: miter"/>
   </g>
   <g id="patch_28">
    <path d="M 272.295613 236.3395 
L 280.399563 236.3395 
L 280.399563 67.275843 
L 272.295613 67.275843 
z
" clip-path="url(#pb5382152c9)" style="fill: #2563eb; opacity: 0.75; stroke: #ffffff; stroke-width: 0.4; stroke-linejoin: miter"/>
   </g>
   <g id="patch_29">
    <path d="M 280.399563 236.3395 
L 288.503513 236.3395 
L 288.503513 47.217443 
L 280.399563 47.217443 
z
" clip-path="url(#pb5382152c9)" style="fill: #2563eb; opacity: 0.75; stroke: #ffffff; stroke-width: 0.4; stroke-linejoin: miter"/>
   </g>
   <g id="patch_30">
    <path d="M 288.503513 236.3395 
L 296.607463 236.3395 
L 296.607463 50.082929 
L 288.503513 50.082929 
z
" clip-path="url(#pb5382152c9)" style="fill: #2563eb; opacity: 0.75; stroke: #ffffff; stroke-width: 0.4; stroke-linejoin: miter"/>
   </g>
   <g id="patch_31">
    <path d="M 296.607463 236.3395 
L 304.711413 236.3395 
L 304.711413 45.307119 
L 296.607463 45.307119 
z
" clip-path="url(#pb5382152c9)" style="fill: #2563eb; opacity: 0.75; stroke: #ffffff; stroke-width: 0.4; stroke-linejoin: miter"/>
   </g>
   <g id="patch_32">
    <path d="M 304.711413 236.3395 
L 312.815363 236.3395 
L 312.815363 52.948414 
L 304.711413 52.948414 
z
" clip-path="url(#pb5382152c9)" style="fill: #2563eb; opacity: 0.75; stroke: #ffffff; stroke-width: 0.4; stroke-linejoin: miter"/>
   </g>
   <g id="patch_33">
    <path d="M 312.815363 236.3395 
L 320.919313 236.3395 
L 320.919313 51.993252 
L 312.815363 51.993252 
z
" clip-path="url(#pb5382152c9)" style="fill: #2563eb; opacity: 0.75; stroke: #ffffff; stroke-width: 0.4; stroke-linejoin: miter"/>
   </g>
   <g id="patch_34">
    <path d="M 320.919313 236.3395 
L 329.023263 236.3395 
L 329.023263 66.320681 
L 320.919313 66.320681 
z
" clip-path="url(#pb5382152c9)" style="fill: #2563eb; opacity: 0.75; stroke: #ffffff; stroke-width: 0.4; stroke-linejoin: miter"/>
   </g>
   <g id="patch_35">
    <path d="M 329.023263 236.3395 
L 337.127212 236.3395 
L 337.127212 93.065214 
L 329.023263 93.065214 
z
" clip-path="url(#pb5382152c9)" style="fill: #2563eb; opacity: 0.75; stroke: #ffffff; stroke-width: 0.4; stroke-linejoin: miter"/>
   </g>
   <g id="patch_36">
    <path d="M 337.127212 236.3395 
L 345.231162 236.3395 
L 345.231162 117.899424 
L 337.127212 117.899424 
z
" clip-path="url(#pb5382152c9)" style="fill: #2563eb; opacity: 0.75; stroke: #ffffff; stroke-width: 0.4; stroke-linejoin: miter"/>
   </g>
   <g id="patch_37">
    <path d="M 345.231162 236.3395 
L 353.335112 236.3395 
L 353.335112 137.957824 
L 345.231162 137.957824 
z
" clip-path="url(#pb5382152c9)" style="fill: #2563eb; opacity: 0.75; stroke: #ffffff; stroke-width: 0.4; stroke-linejoin: miter"/>
   </g>
   <g id="patch_38">
    <path d="M 353.335112 236.3395 
L 361.439062 236.3395 
L 361.439062 157.061062 
L 353.335112 157.061062 
z
" clip-path="url(#pb5382152c9)" style="fill: #2563eb; opacity: 0.75; stroke: #ffffff; stroke-width: 0.4; stroke-linejoin: miter"/>
   </g>
   <g id="patch_39">
    <path d="M 361.439062 236.3395 
L 369.543012 236.3395 
L 369.543012 162.792033 
L 361.439062 162.792033 
z
" clip-path="url(#pb5382152c9)" style="fill: #2563eb; opacity: 0.75; stroke: #ffffff; stroke-width: 0.4; stroke-linejoin: miter"/>
   </g>
   <g id="patch_40">
    <path d="M 369.543012 236.3395 
L 377.646962 236.3395 
L 377.646962 200.043348 
L 369.543012 200.043348 
z
" clip-path="url(#pb5382152c9)" style="fill: #2563eb; opacity: 0.75; stroke: #ffffff; stroke-width: 0.4; stroke-linejoin: miter"/>
   </g>
   <g id="patch_41">
    <path d="M 377.646962 236.3395 
L 385.750912 236.3395 
L 385.750912 206.729481 
L 377.646962 206.729481 
z
" clip-path="url(#pb5382152c9)" style="fill: #2563eb; opacity: 0.75; stroke: #ffffff; stroke-width: 0.4; stroke-linejoin: miter"/>
   </g>
   <g id="patch_42">
    <path d="M 385.750912 236.3395 
L 393.854862 236.3395 
L 393.854862 216.2811 
L 385.750912 216.2811 
z
" clip-path="url(#pb5382152c9)" style="fill: #2563eb; opacity: 0.75; stroke: #ffffff; stroke-width: 0.4; stroke-linejoin: miter"/>
   </g>
   <g id="patch_43">
    <path d="M 393.854862 236.3395 
L 401.958812 236.3395 
L 401.958812 226.787881 
L 393.854862 226.787881 
z
" clip-path="url(#pb5382152c9)" style="fill: #2563eb; opacity: 0.75; stroke: #ffffff; stroke-width: 0.4; stroke-linejoin: miter"/>
   </g>
   <g id="patch_44">
    <path d="M 401.958812 236.3395 
L 410.062762 236.3395 
L 410.062762 233.474014 
L 401.958812 233.474014 
z
" clip-path="url(#pb5382152c9)" style="fill: #2563eb; opacity: 0.75; stroke: #ffffff; stroke-width: 0.4; stroke-linejoin: miter"/>
   </g>
   <g id="patch_45">
    <path d="M 410.062762 236.3395 
L 418.166712 236.3395 
L 418.166712 232.518852 
L 410.062762 232.518852 
z
" clip-path="url(#pb5382152c9)" style="fill: #2563eb; opacity: 0.75; stroke: #ffffff; stroke-width: 0.4; stroke-linejoin: miter"/>
   </g>
   <g id="patch_46">
    <path d="M 418.166712 236.3395 
L 426.270662 236.3395 
L 426.270662 235.384338 
L 418.166712 235.384338 
z
" clip-path="url(#pb5382152c9)" style="fill: #2563eb; opacity: 0.75; stroke: #ffffff; stroke-width: 0.4; stroke-linejoin: miter"/>
   </g>
   <g id="patch_47">
    <path d="M 426.270662 236.3395 
L 434.374612 236.3395 
L 434.374612 236.3395 
L 426.270662 236.3395 
z
" clip-path="url(#pb5382152c9)" style="fill: #2563eb; opacity: 0.75; stroke: #ffffff; stroke-width: 0.4; stroke-linejoin: miter"/>
   </g>
   <g id="patch_48">
    <path d="M 434.374612 236.3395 
L 442.478562 236.3395 
L 442.478562 236.3395 
L 434.374612 236.3395 
z
" clip-path="url(#pb5382152c9)" style="fill: #2563eb; opacity: 0.75; stroke: #ffffff; stroke-width: 0.4; stroke-linejoin: miter"/>
   </g>
   <g id="patch_49">
    <path d="M 442.478562 236.3395 
L 450.582511 236.3395 
L 450.582511 235.384338 
L 442.478562 235.384338 
z
" clip-path="url(#pb5382152c9)" style="fill: #2563eb; opacity: 0.75; stroke: #ffffff; stroke-width: 0.4; stroke-linejoin: miter"/>
   </g>
   <g id="patch_50">
    <path d="M 450.582511 236.3395 
L 458.686461 236.3395 
L 458.686461 236.3395 
L 450.582511 236.3395 
z
" clip-path="url(#pb5382152c9)" style="fill: #2563eb; opacity: 0.75; stroke: #ffffff; stroke-width: 0.4; stroke-linejoin: miter"/>
   </g>
   <g id="patch_51">
    <path d="M 458.686461 236.3395 
L 466.790411 236.3395 
L 466.790411 235.384338 
L 458.686461 235.384338 
z
" clip-path="url(#pb5382152c9)" style="fill: #2563eb; opacity: 0.75; stroke: #ffffff; stroke-width: 0.4; stroke-linejoin: miter"/>
   </g>
   <g id="matplotlib.axis_1">
    <g id="xtick_1">
     <g id="line2d_1">
      <path d="M 69.696865 236.3395 
L 69.696865 35.7555 
" clip-path="url(#pb5382152c9)" style="fill: none; stroke: #b0b0b0; stroke-opacity: 0.25; stroke-width: 0.8; stroke-linecap: square"/>
     </g>
     <g id="line2d_2">
      <defs>
       <path id="m576b0fa153" d="M 0 0 
L 0 3.5 
" style="stroke: #000000; stroke-width: 0.8"/>
      </defs>
      <g>
       <use xlink:href="#m576b0fa153" x="69.696865" y="236.3395" style="stroke: #000000; stroke-width: 0.8"/>
      </g>
     </g>
     <g id="text_1">
      <!-- $1 -->
      <g transform="translate(62.698115 251.697781) scale(0.11 -0.11)">
       <defs>
        <path id="DejaVuSans-24" d="M 2163 -941 
L 1850 -941 
L 1847 0 
Q 1519 6 1191 76 
Q 863 147 531 288 
L 531 850 
Q 850 650 1176 548 
Q 1503 447 1850 444 
L 1850 1869 
Q 1159 1981 845 2250 
Q 531 2519 531 2988 
Q 531 3497 872 3790 
Q 1213 4084 1850 4128 
L 1850 4863 
L 2163 4863 
L 2163 4138 
Q 2453 4125 2725 4076 
Q 2997 4028 3256 3944 
L 3256 3397 
Q 2997 3528 2723 3600 
Q 2450 3672 2163 3684 
L 2163 2350 
Q 2872 2241 3206 1959 
Q 3541 1678 3541 1191 
Q 3541 663 3186 358 
Q 2831 53 2163 6 
L 2163 -941 
z
M 1850 2406 
L 1850 3688 
Q 1488 3647 1297 3481 
Q 1106 3316 1106 3041 
Q 1106 2772 1282 2622 
Q 1459 2472 1850 2406 
z
M 2163 1806 
L 2163 453 
Q 2559 506 2761 678 
Q 2963 850 2963 1131 
Q 2963 1406 2770 1568 
Q 2578 1731 2163 1806 
z
" transform="scale(0.015625)"/>
        <path id="DejaVuSans-31" d="M 794 531 
L 1825 531 
L 1825 4091 
L 703 3866 
L 703 4441 
L 1819 4666 
L 2450 4666 
L 2450 531 
L 3481 531 
L 3481 0 
L 794 0 
L 794 531 
z
" transform="scale(0.015625)"/>
       </defs>
       <use xlink:href="#DejaVuSans-24"/>
       <use xlink:href="#DejaVuSans-31" transform="translate(63.623047 0)"/>
      </g>
     </g>
    </g>
    <g id="xtick_2">
     <g id="line2d_3">
      <path d="M 133.517048 236.3395 
L 133.517048 35.7555 
" clip-path="url(#pb5382152c9)" style="fill: none; stroke: #b0b0b0; stroke-opacity: 0.25; stroke-width: 0.8; stroke-linecap: square"/>
     </g>
     <g id="line2d_4">
      <g>
       <use xlink:href="#m576b0fa153" x="133.517048" y="236.3395" style="stroke: #000000; stroke-width: 0.8"/>
      </g>
     </g>
     <g id="text_2">
      <!-- $10 -->
      <g transform="translate(123.018923 251.697781) scale(0.11 -0.11)">
       <defs>
        <path id="DejaVuSans-30" d="M 2034 4250 
Q 1547 4250 1301 3770 
Q 1056 3291 1056 2328 
Q 1056 1369 1301 889 
Q 1547 409 2034 409 
Q 2525 409 2770 889 
Q 3016 1369 3016 2328 
Q 3016 3291 2770 3770 
Q 2525 4250 2034 4250 
z
M 2034 4750 
Q 2819 4750 3233 4129 
Q 3647 3509 3647 2328 
Q 3647 1150 3233 529 
Q 2819 -91 2034 -91 
Q 1250 -91 836 529 
Q 422 1150 422 2328 
Q 422 3509 836 4129 
Q 1250 4750 2034 4750 
z
" transform="scale(0.015625)"/>
       </defs>
       <use xlink:href="#DejaVuSans-24"/>
       <use xlink:href="#DejaVuSans-31" transform="translate(63.623047 0)"/>
       <use xlink:href="#DejaVuSans-30" transform="translate(127.246094 0)"/>
      </g>
     </g>
    </g>
    <g id="xtick_3">
     <g id="line2d_5">
      <path d="M 197.337231 236.3395 
L 197.337231 35.7555 
" clip-path="url(#pb5382152c9)" style="fill: none; stroke: #b0b0b0; stroke-opacity: 0.25; stroke-width: 0.8; stroke-linecap: square"/>
     </g>
     <g id="line2d_6">
      <g>
       <use xlink:href="#m576b0fa153" x="197.337231" y="236.3395" style="stroke: #000000; stroke-width: 0.8"/>
      </g>
     </g>
     <g id="text_3">
      <!-- $100 -->
      <g transform="translate(183.339731 251.697781) scale(0.11 -0.11)">
       <use xlink:href="#DejaVuSans-24"/>
       <use xlink:href="#DejaVuSans-31" transform="translate(63.623047 0)"/>
       <use xlink:href="#DejaVuSans-30" transform="translate(127.246094 0)"/>
       <use xlink:href="#DejaVuSans-30" transform="translate(190.869141 0)"/>
      </g>
     </g>
    </g>
    <g id="xtick_4">
     <g id="line2d_7">
      <path d="M 261.157414 236.3395 
L 261.157414 35.7555 
" clip-path="url(#pb5382152c9)" style="fill: none; stroke: #b0b0b0; stroke-opacity: 0.25; stroke-width: 0.8; stroke-linecap: square"/>
     </g>
     <g id="line2d_8">
      <g>
       <use xlink:href="#m576b0fa153" x="261.157414" y="236.3395" style="stroke: #000000; stroke-width: 0.8"/>
      </g>
     </g>
     <g id="text_4">
      <!-- $1,000 -->
      <g transform="translate(241.91257 251.697781) scale(0.11 -0.11)">
       <defs>
        <path id="DejaVuSans-2c" d="M 750 794 
L 1409 794 
L 1409 256 
L 897 -744 
L 494 -744 
L 750 256 
L 750 794 
z
" transform="scale(0.015625)"/>
       </defs>
       <use xlink:href="#DejaVuSans-24"/>
       <use xlink:href="#DejaVuSans-31" transform="translate(63.623047 0)"/>
       <use xlink:href="#DejaVuSans-2c" transform="translate(127.246094 0)"/>
       <use xlink:href="#DejaVuSans-30" transform="translate(159.033203 0)"/>
       <use xlink:href="#DejaVuSans-30" transform="translate(222.65625 0)"/>
       <use xlink:href="#DejaVuSans-30" transform="translate(286.279297 0)"/>
      </g>
     </g>
    </g>
    <g id="xtick_5">
     <g id="line2d_9">
      <path d="M 324.977597 236.3395 
L 324.977597 35.7555 
" clip-path="url(#pb5382152c9)" style="fill: none; stroke: #b0b0b0; stroke-opacity: 0.25; stroke-width: 0.8; stroke-linecap: square"/>
     </g>
     <g id="line2d_10">
      <g>
       <use xlink:href="#m576b0fa153" x="324.977597" y="236.3395" style="stroke: #000000; stroke-width: 0.8"/>
      </g>
     </g>
     <g id="text_5">
      <!-- $10,000 -->
      <g transform="translate(302.233378 251.697781) scale(0.11 -0.11)">
       <use xlink:href="#DejaVuSans-24"/>
       <use xlink:href="#DejaVuSans-31" transform="translate(63.623047 0)"/>
       <use xlink:href="#DejaVuSans-30" transform="translate(127.246094 0)"/>
       <use xlink:href="#DejaVuSans-2c" transform="translate(190.869141 0)"/>
       <use xlink:href="#DejaVuSans-30" transform="translate(222.65625 0)"/>
       <use xlink:href="#DejaVuSans-30" transform="translate(286.279297 0)"/>
       <use xlink:href="#DejaVuSans-30" transform="translate(349.902344 0)"/>
      </g>
     </g>
    </g>
    <g id="xtick_6">
     <g id="line2d_11">
      <path d="M 388.797779 236.3395 
L 388.797779 35.7555 
" clip-path="url(#pb5382152c9)" style="fill: none; stroke: #b0b0b0; stroke-opacity: 0.25; stroke-width: 0.8; stroke-linecap: square"/>
     </g>
     <g id="line2d_12">
      <g>
       <use xlink:href="#m576b0fa153" x="388.797779" y="236.3395" style="stroke: #000000; stroke-width: 0.8"/>
      </g>
     </g>
     <g id="text_6">
      <!-- $100,000 -->
      <g transform="translate(362.554186 251.697781) scale(0.11 -0.11)">
       <use xlink:href="#DejaVuSans-24"/>
       <use xlink:href="#DejaVuSans-31" transform="translate(63.623047 0)"/>
       <use xlink:href="#DejaVuSans-30" transform="translate(127.246094 0)"/>
       <use xlink:href="#DejaVuSans-30" transform="translate(190.869141 0)"/>
       <use xlink:href="#DejaVuSans-2c" transform="translate(254.492188 0)"/>
       <use xlink:href="#DejaVuSans-30" transform="translate(286.279297 0)"/>
       <use xlink:href="#DejaVuSans-30" transform="translate(349.902344 0)"/>
       <use xlink:href="#DejaVuSans-30" transform="translate(413.525391 0)"/>
      </g>
     </g>
    </g>
    <g id="xtick_7">
     <g id="line2d_13">
      <path d="M 452.617962 236.3395 
L 452.617962 35.7555 
" clip-path="url(#pb5382152c9)" style="fill: none; stroke: #b0b0b0; stroke-opacity: 0.25; stroke-width: 0.8; stroke-linecap: square"/>
     </g>
     <g id="line2d_14">
      <g>
       <use xlink:href="#m576b0fa153" x="452.617962" y="236.3395" style="stroke: #000000; stroke-width: 0.8"/>
      </g>
     </g>
     <g id="text_7">
      <!-- $1,000,000 -->
      <g transform="translate(421.127025 251.697781) scale(0.11 -0.11)">
       <use xlink:href="#DejaVuSans-24"/>
       <use xlink:href="#DejaVuSans-31" transform="translate(63.623047 0)"/>
       <use xlink:href="#DejaVuSans-2c" transform="translate(127.246094 0)"/>
       <use xlink:href="#DejaVuSans-30" transform="translate(159.033203 0)"/>
       <use xlink:href="#DejaVuSans-30" transform="translate(222.65625 0)"/>
       <use xlink:href="#DejaVuSans-30" transform="translate(286.279297 0)"/>
       <use xlink:href="#DejaVuSans-2c" transform="translate(349.902344 0)"/>
       <use xlink:href="#DejaVuSans-30" transform="translate(381.689453 0)"/>
       <use xlink:href="#DejaVuSans-30" transform="translate(445.3125 0)"/>
       <use xlink:href="#DejaVuSans-30" transform="translate(508.935547 0)"/>
      </g>
     </g>
    </g>
    <g id="xtick_8">
     <g id="line2d_15">
      <defs>
       <path id="mc87e3c7508" d="M 0 0 
L 0 2 
" style="stroke: #000000; stroke-width: 0.6"/>
      </defs>
      <g>
       <use xlink:href="#mc87e3c7508" x="50.485075" y="236.3395" style="stroke: #000000; stroke-width: 0.6"/>
      </g>
     </g>
    </g>
    <g id="xtick_9">
     <g id="line2d_16">
      <g>
       <use xlink:href="#mc87e3c7508" x="55.538437" y="236.3395" style="stroke: #000000; stroke-width: 0.6"/>
      </g>
     </g>
    </g>
    <g id="xtick_10">
     <g id="line2d_17">
      <g>
       <use xlink:href="#mc87e3c7508" x="59.810993" y="236.3395" style="stroke: #000000; stroke-width: 0.6"/>
      </g>
     </g>
    </g>
    <g id="xtick_11">
     <g id="line2d_18">
      <g>
       <use xlink:href="#mc87e3c7508" x="63.51205" y="236.3395" style="stroke: #000000; stroke-width: 0.6"/>
      </g>
     </g>
    </g>
    <g id="xtick_12">
     <g id="line2d_19">
      <g>
       <use xlink:href="#mc87e3c7508" x="66.776613" y="236.3395" style="stroke: #000000; stroke-width: 0.6"/>
      </g>
     </g>
    </g>
    <g id="xtick_13">
     <g id="line2d_20">
      <g>
       <use xlink:href="#mc87e3c7508" x="88.908654" y="236.3395" style="stroke: #000000; stroke-width: 0.6"/>
      </g>
     </g>
    </g>
    <g id="xtick_14">
     <g id="line2d_21">
      <g>
       <use xlink:href="#mc87e3c7508" x="100.146831" y="236.3395" style="stroke: #000000; stroke-width: 0.6"/>
      </g>
     </g>
    </g>
    <g id="xtick_15">
     <g id="line2d_22">
      <g>
       <use xlink:href="#mc87e3c7508" x="108.120444" y="236.3395" style="stroke: #000000; stroke-width: 0.6"/>
      </g>
     </g>
    </g>
    <g id="xtick_16">
     <g id="line2d_23">
      <g>
       <use xlink:href="#mc87e3c7508" x="114.305258" y="236.3395" style="stroke: #000000; stroke-width: 0.6"/>
      </g>
     </g>
    </g>
    <g id="xtick_17">
     <g id="line2d_24">
      <g>
       <use xlink:href="#mc87e3c7508" x="119.35862" y="236.3395" style="stroke: #000000; stroke-width: 0.6"/>
      </g>
     </g>
    </g>
    <g id="xtick_18">
     <g id="line2d_25">
      <g>
       <use xlink:href="#mc87e3c7508" x="123.631176" y="236.3395" style="stroke: #000000; stroke-width: 0.6"/>
      </g>
     </g>
    </g>
    <g id="xtick_19">
     <g id="line2d_26">
      <g>
       <use xlink:href="#mc87e3c7508" x="127.332233" y="236.3395" style="stroke: #000000; stroke-width: 0.6"/>
      </g>
     </g>
    </g>
    <g id="xtick_20">
     <g id="line2d_27">
      <g>
       <use xlink:href="#mc87e3c7508" x="130.596796" y="236.3395" style="stroke: #000000; stroke-width: 0.6"/>
      </g>
     </g>
    </g>
    <g id="xtick_21">
     <g id="line2d_28">
      <g>
       <use xlink:href="#mc87e3c7508" x="152.728837" y="236.3395" style="stroke: #000000; stroke-width: 0.6"/>
      </g>
     </g>
    </g>
    <g id="xtick_22">
     <g id="line2d_29">
      <g>
       <use xlink:href="#mc87e3c7508" x="163.967014" y="236.3395" style="stroke: #000000; stroke-width: 0.6"/>
      </g>
     </g>
    </g>
    <g id="xtick_23">
     <g id="line2d_30">
      <g>
       <use xlink:href="#mc87e3c7508" x="171.940627" y="236.3395" style="stroke: #000000; stroke-width: 0.6"/>
      </g>
     </g>
    </g>
    <g id="xtick_24">
     <g id="line2d_31">
      <g>
       <use xlink:href="#mc87e3c7508" x="178.125441" y="236.3395" style="stroke: #000000; stroke-width: 0.6"/>
      </g>
     </g>
    </g>
    <g id="xtick_25">
     <g id="line2d_32">
      <g>
       <use xlink:href="#mc87e3c7508" x="183.178803" y="236.3395" style="stroke: #000000; stroke-width: 0.6"/>
      </g>
     </g>
    </g>
    <g id="xtick_26">
     <g id="line2d_33">
      <g>
       <use xlink:href="#mc87e3c7508" x="187.451359" y="236.3395" style="stroke: #000000; stroke-width: 0.6"/>
      </g>
     </g>
    </g>
    <g id="xtick_27">
     <g id="line2d_34">
      <g>
       <use xlink:href="#mc87e3c7508" x="191.152416" y="236.3395" style="stroke: #000000; stroke-width: 0.6"/>
      </g>
     </g>
    </g>
    <g id="xtick_28">
     <g id="line2d_35">
      <g>
       <use xlink:href="#mc87e3c7508" x="194.416979" y="236.3395" style="stroke: #000000; stroke-width: 0.6"/>
      </g>
     </g>
    </g>
    <g id="xtick_29">
     <g id="line2d_36">
      <g>
       <use xlink:href="#mc87e3c7508" x="216.54902" y="236.3395" style="stroke: #000000; stroke-width: 0.6"/>
      </g>
     </g>
    </g>
    <g id="xtick_30">
     <g id="line2d_37">
      <g>
       <use xlink:href="#mc87e3c7508" x="227.787196" y="236.3395" style="stroke: #000000; stroke-width: 0.6"/>
      </g>
     </g>
    </g>
    <g id="xtick_31">
     <g id="line2d_38">
      <g>
       <use xlink:href="#mc87e3c7508" x="235.760809" y="236.3395" style="stroke: #000000; stroke-width: 0.6"/>
      </g>
     </g>
    </g>
    <g id="xtick_32">
     <g id="line2d_39">
      <g>
       <use xlink:href="#mc87e3c7508" x="241.945624" y="236.3395" style="stroke: #000000; stroke-width: 0.6"/>
      </g>
     </g>
    </g>
    <g id="xtick_33">
     <g id="line2d_40">
      <g>
       <use xlink:href="#mc87e3c7508" x="246.998986" y="236.3395" style="stroke: #000000; stroke-width: 0.6"/>
      </g>
     </g>
    </g>
    <g id="xtick_34">
     <g id="line2d_41">
      <g>
       <use xlink:href="#mc87e3c7508" x="251.271542" y="236.3395" style="stroke: #000000; stroke-width: 0.6"/>
      </g>
     </g>
    </g>
    <g id="xtick_35">
     <g id="line2d_42">
      <g>
       <use xlink:href="#mc87e3c7508" x="254.972599" y="236.3395" style="stroke: #000000; stroke-width: 0.6"/>
      </g>
     </g>
    </g>
    <g id="xtick_36">
     <g id="line2d_43">
      <g>
       <use xlink:href="#mc87e3c7508" x="258.237162" y="236.3395" style="stroke: #000000; stroke-width: 0.6"/>
      </g>
     </g>
    </g>
    <g id="xtick_37">
     <g id="line2d_44">
      <g>
       <use xlink:href="#mc87e3c7508" x="280.369203" y="236.3395" style="stroke: #000000; stroke-width: 0.6"/>
      </g>
     </g>
    </g>
    <g id="xtick_38">
     <g id="line2d_45">
      <g>
       <use xlink:href="#mc87e3c7508" x="291.607379" y="236.3395" style="stroke: #000000; stroke-width: 0.6"/>
      </g>
     </g>
    </g>
    <g id="xtick_39">
     <g id="line2d_46">
      <g>
       <use xlink:href="#mc87e3c7508" x="299.580992" y="236.3395" style="stroke: #000000; stroke-width: 0.6"/>
      </g>
     </g>
    </g>
    <g id="xtick_40">
     <g id="line2d_47">
      <g>
       <use xlink:href="#mc87e3c7508" x="305.765807" y="236.3395" style="stroke: #000000; stroke-width: 0.6"/>
      </g>
     </g>
    </g>
    <g id="xtick_41">
     <g id="line2d_48">
      <g>
       <use xlink:href="#mc87e3c7508" x="310.819169" y="236.3395" style="stroke: #000000; stroke-width: 0.6"/>
      </g>
     </g>
    </g>
    <g id="xtick_42">
     <g id="line2d_49">
      <g>
       <use xlink:href="#mc87e3c7508" x="315.091725" y="236.3395" style="stroke: #000000; stroke-width: 0.6"/>
      </g>
     </g>
    </g>
    <g id="xtick_43">
     <g id="line2d_50">
      <g>
       <use xlink:href="#mc87e3c7508" x="318.792782" y="236.3395" style="stroke: #000000; stroke-width: 0.6"/>
      </g>
     </g>
    </g>
    <g id="xtick_44">
     <g id="line2d_51">
      <g>
       <use xlink:href="#mc87e3c7508" x="322.057345" y="236.3395" style="stroke: #000000; stroke-width: 0.6"/>
      </g>
     </g>
    </g>
    <g id="xtick_45">
     <g id="line2d_52">
      <g>
       <use xlink:href="#mc87e3c7508" x="344.189386" y="236.3395" style="stroke: #000000; stroke-width: 0.6"/>
      </g>
     </g>
    </g>
    <g id="xtick_46">
     <g id="line2d_53">
      <g>
       <use xlink:href="#mc87e3c7508" x="355.427562" y="236.3395" style="stroke: #000000; stroke-width: 0.6"/>
      </g>
     </g>
    </g>
    <g id="xtick_47">
     <g id="line2d_54">
      <g>
       <use xlink:href="#mc87e3c7508" x="363.401175" y="236.3395" style="stroke: #000000; stroke-width: 0.6"/>
      </g>
     </g>
    </g>
    <g id="xtick_48">
     <g id="line2d_55">
      <g>
       <use xlink:href="#mc87e3c7508" x="369.58599" y="236.3395" style="stroke: #000000; stroke-width: 0.6"/>
      </g>
     </g>
    </g>
    <g id="xtick_49">
     <g id="line2d_56">
      <g>
       <use xlink:href="#mc87e3c7508" x="374.639352" y="236.3395" style="stroke: #000000; stroke-width: 0.6"/>
      </g>
     </g>
    </g>
    <g id="xtick_50">
     <g id="line2d_57">
      <g>
       <use xlink:href="#mc87e3c7508" x="378.911908" y="236.3395" style="stroke: #000000; stroke-width: 0.6"/>
      </g>
     </g>
    </g>
    <g id="xtick_51">
     <g id="line2d_58">
      <g>
       <use xlink:href="#mc87e3c7508" x="382.612965" y="236.3395" style="stroke: #000000; stroke-width: 0.6"/>
      </g>
     </g>
    </g>
    <g id="xtick_52">
     <g id="line2d_59">
      <g>
       <use xlink:href="#mc87e3c7508" x="385.877528" y="236.3395" style="stroke: #000000; stroke-width: 0.6"/>
      </g>
     </g>
    </g>
    <g id="xtick_53">
     <g id="line2d_60">
      <g>
       <use xlink:href="#mc87e3c7508" x="408.009569" y="236.3395" style="stroke: #000000; stroke-width: 0.6"/>
      </g>
     </g>
    </g>
    <g id="xtick_54">
     <g id="line2d_61">
      <g>
       <use xlink:href="#mc87e3c7508" x="419.247745" y="236.3395" style="stroke: #000000; stroke-width: 0.6"/>
      </g>
     </g>
    </g>
    <g id="xtick_55">
     <g id="line2d_62">
      <g>
       <use xlink:href="#mc87e3c7508" x="427.221358" y="236.3395" style="stroke: #000000; stroke-width: 0.6"/>
      </g>
     </g>
    </g>
    <g id="xtick_56">
     <g id="line2d_63">
      <g>
       <use xlink:href="#mc87e3c7508" x="433.406173" y="236.3395" style="stroke: #000000; stroke-width: 0.6"/>
      </g>
     </g>
    </g>
    <g id="xtick_57">
     <g id="line2d_64">
      <g>
       <use xlink:href="#mc87e3c7508" x="438.459535" y="236.3395" style="stroke: #000000; stroke-width: 0.6"/>
      </g>
     </g>
    </g>
    <g id="xtick_58">
     <g id="line2d_65">
      <g>
       <use xlink:href="#mc87e3c7508" x="442.732091" y="236.3395" style="stroke: #000000; stroke-width: 0.6"/>
      </g>
     </g>
    </g>
    <g id="xtick_59">
     <g id="line2d_66">
      <g>
       <use xlink:href="#mc87e3c7508" x="446.433148" y="236.3395" style="stroke: #000000; stroke-width: 0.6"/>
      </g>
     </g>
    </g>
    <g id="xtick_60">
     <g id="line2d_67">
      <g>
       <use xlink:href="#mc87e3c7508" x="449.697711" y="236.3395" style="stroke: #000000; stroke-width: 0.6"/>
      </g>
     </g>
    </g>
    <g id="xtick_61">
     <g id="line2d_68">
      <g>
       <use xlink:href="#mc87e3c7508" x="471.829752" y="236.3395" style="stroke: #000000; stroke-width: 0.6"/>
      </g>
     </g>
    </g>
    <g id="xtick_62">
     <g id="line2d_69">
      <g>
       <use xlink:href="#mc87e3c7508" x="483.067928" y="236.3395" style="stroke: #000000; stroke-width: 0.6"/>
      </g>
     </g>
    </g>
    <g id="text_8">
     <!-- Annual charges (USD, log scale) -->
     <g transform="translate(179.999576 266.343719) scale(0.11 -0.11)">
      <defs>
       <path id="DejaVuSans-41" d="M 2188 4044 
L 1331 1722 
L 3047 1722 
L 2188 4044 
z
M 1831 4666 
L 2547 4666 
L 4325 0 
L 3669 0 
L 3244 1197 
L 1141 1197 
L 716 0 
L 50 0 
L 1831 4666 
z
" transform="scale(0.015625)"/>
       <path id="DejaVuSans-6e" d="M 3513 2113 
L 3513 0 
L 2938 0 
L 2938 2094 
Q 2938 2591 2744 2837 
Q 2550 3084 2163 3084 
Q 1697 3084 1428 2787 
Q 1159 2491 1159 1978 
L 1159 0 
L 581 0 
L 581 3500 
L 1159 3500 
L 1159 2956 
Q 1366 3272 1645 3428 
Q 1925 3584 2291 3584 
Q 2894 3584 3203 3211 
Q 3513 2838 3513 2113 
z
" transform="scale(0.015625)"/>
       <path id="DejaVuSans-75" d="M 544 1381 
L 544 3500 
L 1119 3500 
L 1119 1403 
Q 1119 906 1312 657 
Q 1506 409 1894 409 
Q 2359 409 2629 706 
Q 2900 1003 2900 1516 
L 2900 3500 
L 3475 3500 
L 3475 0 
L 2900 0 
L 2900 538 
Q 2691 219 2414 64 
Q 2138 -91 1772 -91 
Q 1169 -91 856 284 
Q 544 659 544 1381 
z
M 1991 3584 
L 1991 3584 
z
" transform="scale(0.015625)"/>
       <path id="DejaVuSans-61" d="M 2194 1759 
Q 1497 1759 1228 1600 
Q 959 1441 959 1056 
Q 959 750 1161 570 
Q 1363 391 1709 391 
Q 2188 391 2477 730 
Q 2766 1069 2766 1631 
L 2766 1759 
L 2194 1759 
z
M 3341 1997 
L 3341 0 
L 2766 0 
L 2766 531 
Q 2569 213 2275 61 
Q 1981 -91 1556 -91 
Q 1019 -91 701 211 
Q 384 513 384 1019 
Q 384 1609 779 1909 
Q 1175 2209 1959 2209 
L 2766 2209 
L 2766 2266 
Q 2766 2663 2505 2880 
Q 2244 3097 1772 3097 
Q 1472 3097 1187 3025 
Q 903 2953 641 2809 
L 641 3341 
Q 956 3463 1253 3523 
Q 1550 3584 1831 3584 
Q 2591 3584 2966 3190 
Q 3341 2797 3341 1997 
z
" transform="scale(0.015625)"/>
       <path id="DejaVuSans-6c" d="M 603 4863 
L 1178 4863 
L 1178 0 
L 603 0 
L 603 4863 
z
" transform="scale(0.015625)"/>
       <path id="DejaVuSans-20" transform="scale(0.015625)"/>
       <path id="DejaVuSans-63" d="M 3122 3366 
L 3122 2828 
Q 2878 2963 2633 3030 
Q 2388 3097 2138 3097 
Q 1578 3097 1268 2742 
Q 959 2388 959 1747 
Q 959 1106 1268 751 
Q 1578 397 2138 397 
Q 2388 397 2633 464 
Q 2878 531 3122 666 
L 3122 134 
Q 2881 22 2623 -34 
Q 2366 -91 2075 -91 
Q 1284 -91 818 406 
Q 353 903 353 1747 
Q 353 2603 823 3093 
Q 1294 3584 2113 3584 
Q 2378 3584 2631 3529 
Q 2884 3475 3122 3366 
z
" transform="scale(0.015625)"/>
       <path id="DejaVuSans-68" d="M 3513 2113 
L 3513 0 
L 2938 0 
L 2938 2094 
Q 2938 2591 2744 2837 
Q 2550 3084 2163 3084 
Q 1697 3084 1428 2787 
Q 1159 2491 1159 1978 
L 1159 0 
L 581 0 
L 581 4863 
L 1159 4863 
L 1159 2956 
Q 1366 3272 1645 3428 
Q 1925 3584 2291 3584 
Q 2894 3584 3203 3211 
Q 3513 2838 3513 2113 
z
" transform="scale(0.015625)"/>
       <path id="DejaVuSans-72" d="M 2631 2963 
Q 2534 3019 2420 3045 
Q 2306 3072 2169 3072 
Q 1681 3072 1420 2755 
Q 1159 2438 1159 1844 
L 1159 0 
L 581 0 
L 581 3500 
L 1159 3500 
L 1159 2956 
Q 1341 3275 1631 3429 
Q 1922 3584 2338 3584 
Q 2397 3584 2469 3576 
Q 2541 3569 2628 3553 
L 2631 2963 
z
" transform="scale(0.015625)"/>
       <path id="DejaVuSans-67" d="M 2906 1791 
Q 2906 2416 2648 2759 
Q 2391 3103 1925 3103 
Q 1463 3103 1205 2759 
Q 947 2416 947 1791 
Q 947 1169 1205 825 
Q 1463 481 1925 481 
Q 2391 481 2648 825 
Q 2906 1169 2906 1791 
z
M 3481 434 
Q 3481 -459 3084 -895 
Q 2688 -1331 1869 -1331 
Q 1566 -1331 1297 -1286 
Q 1028 -1241 775 -1147 
L 775 -588 
Q 1028 -725 1275 -790 
Q 1522 -856 1778 -856 
Q 2344 -856 2625 -561 
Q 2906 -266 2906 331 
L 2906 616 
Q 2728 306 2450 153 
Q 2172 0 1784 0 
Q 1141 0 747 490 
Q 353 981 353 1791 
Q 353 2603 747 3093 
Q 1141 3584 1784 3584 
Q 2172 3584 2450 3431 
Q 2728 3278 2906 2969 
L 2906 3500 
L 3481 3500 
L 3481 434 
z
" transform="scale(0.015625)"/>
       <path id="DejaVuSans-65" d="M 3597 1894 
L 3597 1613 
L 953 1613 
Q 991 1019 1311 708 
Q 1631 397 2203 397 
Q 2534 397 2845 478 
Q 3156 559 3463 722 
L 3463 178 
Q 3153 47 2828 -22 
Q 2503 -91 2169 -91 
Q 1331 -91 842 396 
Q 353 884 353 1716 
Q 353 2575 817 3079 
Q 1281 3584 2069 3584 
Q 2775 3584 3186 3129 
Q 3597 2675 3597 1894 
z
M 3022 2063 
Q 3016 2534 2758 2815 
Q 2500 3097 2075 3097 
Q 1594 3097 1305 2825 
Q 1016 2553 972 2059 
L 3022 2063 
z
" transform="scale(0.015625)"/>
       <path id="DejaVuSans-73" d="M 2834 3397 
L 2834 2853 
Q 2591 2978 2328 3040 
Q 2066 3103 1784 3103 
Q 1356 3103 1142 2972 
Q 928 2841 928 2578 
Q 928 2378 1081 2264 
Q 1234 2150 1697 2047 
L 1894 2003 
Q 2506 1872 2764 1633 
Q 3022 1394 3022 966 
Q 3022 478 2636 193 
Q 2250 -91 1575 -91 
Q 1294 -91 989 -36 
Q 684 19 347 128 
L 347 722 
Q 666 556 975 473 
Q 1284 391 1588 391 
Q 1994 391 2212 530 
Q 2431 669 2431 922 
Q 2431 1156 2273 1281 
Q 2116 1406 1581 1522 
L 1381 1569 
Q 847 1681 609 1914 
Q 372 2147 372 2553 
Q 372 3047 722 3315 
Q 1072 3584 1716 3584 
Q 2034 3584 2315 3537 
Q 2597 3491 2834 3397 
z
" transform="scale(0.015625)"/>
       <path id="DejaVuSans-28" d="M 1984 4856 
Q 1566 4138 1362 3434 
Q 1159 2731 1159 2009 
Q 1159 1288 1364 580 
Q 1569 -128 1984 -844 
L 1484 -844 
Q 1016 -109 783 600 
Q 550 1309 550 2009 
Q 550 2706 781 3412 
Q 1013 4119 1484 4856 
L 1984 4856 
z
" transform="scale(0.015625)"/>
       <path id="DejaVuSans-55" d="M 556 4666 
L 1191 4666 
L 1191 1831 
Q 1191 1081 1462 751 
Q 1734 422 2344 422 
Q 2950 422 3222 751 
Q 3494 1081 3494 1831 
L 3494 4666 
L 4128 4666 
L 4128 1753 
Q 4128 841 3676 375 
Q 3225 -91 2344 -91 
Q 1459 -91 1007 375 
Q 556 841 556 1753 
L 556 4666 
z
" transform="scale(0.015625)"/>
       <path id="DejaVuSans-53" d="M 3425 4513 
L 3425 3897 
Q 3066 4069 2747 4153 
Q 2428 4238 2131 4238 
Q 1616 4238 1336 4038 
Q 1056 3838 1056 3469 
Q 1056 3159 1242 3001 
Q 1428 2844 1947 2747 
L 2328 2669 
Q 3034 2534 3370 2195 
Q 3706 1856 3706 1288 
Q 3706 609 3251 259 
Q 2797 -91 1919 -91 
Q 1588 -91 1214 -16 
Q 841 59 441 206 
L 441 856 
Q 825 641 1194 531 
Q 1563 422 1919 422 
Q 2459 422 2753 634 
Q 3047 847 3047 1241 
Q 3047 1584 2836 1778 
Q 2625 1972 2144 2069 
L 1759 2144 
Q 1053 2284 737 2584 
Q 422 2884 422 3419 
Q 422 4038 858 4394 
Q 1294 4750 2059 4750 
Q 2388 4750 2728 4690 
Q 3069 4631 3425 4513 
z
" transform="scale(0.015625)"/>
       <path id="DejaVuSans-44" d="M 1259 4147 
L 1259 519 
L 2022 519 
Q 2988 519 3436 956 
Q 3884 1394 3884 2338 
Q 3884 3275 3436 3711 
Q 2988 4147 2022 4147 
L 1259 4147 
z
M 628 4666 
L 1925 4666 
Q 3281 4666 3915 4102 
Q 4550 3538 4550 2338 
Q 4550 1131 3912 565 
Q 3275 0 1925 0 
L 628 0 
L 628 4666 
z
" transform="scale(0.015625)"/>
       <path id="DejaVuSans-6f" d="M 1959 3097 
Q 1497 3097 1228 2736 
Q 959 2375 959 1747 
Q 959 1119 1226 758 
Q 1494 397 1959 397 
Q 2419 397 2687 759 
Q 2956 1122 2956 1747 
Q 2956 2369 2687 2733 
Q 2419 3097 1959 3097 
z
M 1959 3584 
Q 2709 3584 3137 3096 
Q 3566 2609 3566 1747 
Q 3566 888 3137 398 
Q 2709 -91 1959 -91 
Q 1206 -91 779 398 
Q 353 888 353 1747 
Q 353 2609 779 3096 
Q 1206 3584 1959 3584 
z
" transform="scale(0.015625)"/>
       <path id="DejaVuSans-29" d="M 513 4856 
L 1013 4856 
Q 1481 4119 1714 3412 
Q 1947 2706 1947 2009 
Q 1947 1309 1714 600 
Q 1481 -109 1013 -844 
L 513 -844 
Q 928 -128 1133 580 
Q 1338 1288 1338 2009 
Q 1338 2731 1133 3434 
Q 928 4138 513 4856 
z
" transform="scale(0.015625)"/>
      </defs>
      <use xlink:href="#DejaVuSans-41"/>
      <use xlink:href="#DejaVuSans-6e" transform="translate(68.408203 0)"/>
      <use xlink:href="#DejaVuSans-6e" transform="translate(131.787109 0)"/>
      <use xlink:href="#DejaVuSans-75" transform="translate(195.166016 0)"/>
      <use xlink:href="#DejaVuSans-61" transform="translate(258.544922 0)"/>
      <use xlink:href="#DejaVuSans-6c" transform="translate(319.824219 0)"/>
      <use xlink:href="#DejaVuSans-20" transform="translate(347.607422 0)"/>
      <use xlink:href="#DejaVuSans-63" transform="translate(379.394531 0)"/>
      <use xlink:href="#DejaVuSans-68" transform="translate(434.375 0)"/>
      <use xlink:href="#DejaVuSans-61" transform="translate(497.753906 0)"/>
      <use xlink:href="#DejaVuSans-72" transform="translate(559.033203 0)"/>
      <use xlink:href="#DejaVuSans-67" transform="translate(598.396484 0)"/>
      <use xlink:href="#DejaVuSans-65" transform="translate(661.873047 0)"/>
      <use xlink:href="#DejaVuSans-73" transform="translate(723.396484 0)"/>
      <use xlink:href="#DejaVuSans-20" transform="translate(775.496094 0)"/>
      <use xlink:href="#DejaVuSans-28" transform="translate(807.283203 0)"/>
      <use xlink:href="#DejaVuSans-55" transform="translate(846.296875 0)"/>
      <use xlink:href="#DejaVuSans-53" transform="translate(919.490234 0)"/>
      <use xlink:href="#DejaVuSans-44" transform="translate(982.966797 0)"/>
      <use xlink:href="#DejaVuSans-2c" transform="translate(1059.96875 0)"/>
      <use xlink:href="#DejaVuSans-20" transform="translate(1091.755859 0)"/>
      <use xlink:href="#DejaVuSans-6c" transform="translate(1123.542969 0)"/>
      <use xlink:href="#DejaVuSans-6f" transform="translate(1151.326172 0)"/>
      <use xlink:href="#DejaVuSans-67" transform="translate(1212.507812 0)"/>
      <use xlink:href="#DejaVuSans-20" transform="translate(1275.984375 0)"/>
      <use xlink:href="#DejaVuSans-73" transform="translate(1307.771484 0)"/>
      <use xlink:href="#DejaVuSans-63" transform="translate(1359.871094 0)"/>
      <use xlink:href="#DejaVuSans-61" transform="translate(1414.851562 0)"/>
      <use xlink:href="#DejaVuSans-6c" transform="translate(1476.130859 0)"/>
      <use xlink:href="#DejaVuSans-65" transform="translate(1503.914062 0)"/>
      <use xlink:href="#DejaVuSans-29" transform="translate(1565.4375 0)"/>
     </g>
    </g>
   </g>
   <g id="matplotlib.axis_2">
    <g id="ytick_1">
     <g id="line2d_70">
      <path d="M 49.842188 236.3395 
L 486.645089 236.3395 
" clip-path="url(#pb5382152c9)" style="fill: none; stroke: #b0b0b0; stroke-opacity: 0.25; stroke-width: 0.8; stroke-linecap: square"/>
     </g>
     <g id="line2d_71">
      <defs>
       <path id="mc084ae6fce" d="M 0 0 
L -3.5 0 
" style="stroke: #000000; stroke-width: 0.8"/>
      </defs>
      <g>
       <use xlink:href="#mc084ae6fce" x="49.842188" y="236.3395" style="stroke: #000000; stroke-width: 0.8"/>
      </g>
     </g>
     <g id="text_9">
      <!-- 0 -->
      <g transform="translate(35.843438 240.518641) scale(0.11 -0.11)">
       <use xlink:href="#DejaVuSans-30"/>
      </g>
     </g>
    </g>
    <g id="ytick_2">
     <g id="line2d_72">
      <path d="M 49.842188 212.460452 
L 486.645089 212.460452 
" clip-path="url(#pb5382152c9)" style="fill: none; stroke: #b0b0b0; stroke-opacity: 0.25; stroke-width: 0.8; stroke-linecap: square"/>
     </g>
     <g id="line2d_73">
      <g>
       <use xlink:href="#mc084ae6fce" x="49.842188" y="212.460452" style="stroke: #000000; stroke-width: 0.8"/>
      </g>
     </g>
     <g id="text_10">
      <!-- 25 -->
      <g transform="translate(28.844687 216.639593) scale(0.11 -0.11)">
       <defs>
        <path id="DejaVuSans-32" d="M 1228 531 
L 3431 531 
L 3431 0 
L 469 0 
L 469 531 
Q 828 903 1448 1529 
Q 2069 2156 2228 2338 
Q 2531 2678 2651 2914 
Q 2772 3150 2772 3378 
Q 2772 3750 2511 3984 
Q 2250 4219 1831 4219 
Q 1534 4219 1204 4116 
Q 875 4013 500 3803 
L 500 4441 
Q 881 4594 1212 4672 
Q 1544 4750 1819 4750 
Q 2544 4750 2975 4387 
Q 3406 4025 3406 3419 
Q 3406 3131 3298 2873 
Q 3191 2616 2906 2266 
Q 2828 2175 2409 1742 
Q 1991 1309 1228 531 
z
" transform="scale(0.015625)"/>
        <path id="DejaVuSans-35" d="M 691 4666 
L 3169 4666 
L 3169 4134 
L 1269 4134 
L 1269 2991 
Q 1406 3038 1543 3061 
Q 1681 3084 1819 3084 
Q 2600 3084 3056 2656 
Q 3513 2228 3513 1497 
Q 3513 744 3044 326 
Q 2575 -91 1722 -91 
Q 1428 -91 1123 -41 
Q 819 9 494 109 
L 494 744 
Q 775 591 1075 516 
Q 1375 441 1709 441 
Q 2250 441 2565 725 
Q 2881 1009 2881 1497 
Q 2881 1984 2565 2268 
Q 2250 2553 1709 2553 
Q 1456 2553 1204 2497 
Q 953 2441 691 2322 
L 691 4666 
z
" transform="scale(0.015625)"/>
       </defs>
       <use xlink:href="#DejaVuSans-32"/>
       <use xlink:href="#DejaVuSans-35" transform="translate(63.623047 0)"/>
      </g>
     </g>
    </g>
    <g id="ytick_3">
     <g id="line2d_74">
      <path d="M 49.842188 188.581405 
L 486.645089 188.581405 
" clip-path="url(#pb5382152c9)" style="fill: none; stroke: #b0b0b0; stroke-opacity: 0.25; stroke-width: 0.8; stroke-linecap: square"/>
     </g>
     <g id="line2d_75">
      <g>
       <use xlink:href="#mc084ae6fce" x="49.842188" y="188.581405" style="stroke: #000000; stroke-width: 0.8"/>
      </g>
     </g>
     <g id="text_11">
      <!-- 50 -->
      <g transform="translate(28.844687 192.760545) scale(0.11 -0.11)">
       <use xlink:href="#DejaVuSans-35"/>
       <use xlink:href="#DejaVuSans-30" transform="translate(63.623047 0)"/>
      </g>
     </g>
    </g>
    <g id="ytick_4">
     <g id="line2d_76">
      <path d="M 49.842188 164.702357 
L 486.645089 164.702357 
" clip-path="url(#pb5382152c9)" style="fill: none; stroke: #b0b0b0; stroke-opacity: 0.25; stroke-width: 0.8; stroke-linecap: square"/>
     </g>
     <g id="line2d_77">
      <g>
       <use xlink:href="#mc084ae6fce" x="49.842188" y="164.702357" style="stroke: #000000; stroke-width: 0.8"/>
      </g>
     </g>
     <g id="text_12">
      <!-- 75 -->
      <g transform="translate(28.844687 168.881498) scale(0.11 -0.11)">
       <defs>
        <path id="DejaVuSans-37" d="M 525 4666 
L 3525 4666 
L 3525 4397 
L 1831 0 
L 1172 0 
L 2766 4134 
L 525 4134 
L 525 4666 
z
" transform="scale(0.015625)"/>
       </defs>
       <use xlink:href="#DejaVuSans-37"/>
       <use xlink:href="#DejaVuSans-35" transform="translate(63.623047 0)"/>
      </g>
     </g>
    </g>
    <g id="ytick_5">
     <g id="line2d_78">
      <path d="M 49.842188 140.82331 
L 486.645089 140.82331 
" clip-path="url(#pb5382152c9)" style="fill: none; stroke: #b0b0b0; stroke-opacity: 0.25; stroke-width: 0.8; stroke-linecap: square"/>
     </g>
     <g id="line2d_79">
      <g>
       <use xlink:href="#mc084ae6fce" x="49.842188" y="140.82331" style="stroke: #000000; stroke-width: 0.8"/>
      </g>
     </g>
     <g id="text_13">
      <!-- 100 -->
      <g transform="translate(21.845938 145.00245) scale(0.11 -0.11)">
       <use xlink:href="#DejaVuSans-31"/>
       <use xlink:href="#DejaVuSans-30" transform="translate(63.623047 0)"/>
       <use xlink:href="#DejaVuSans-30" transform="translate(127.246094 0)"/>
      </g>
     </g>
    </g>
    <g id="ytick_6">
     <g id="line2d_80">
      <path d="M 49.842188 116.944262 
L 486.645089 116.944262 
" clip-path="url(#pb5382152c9)" style="fill: none; stroke: #b0b0b0; stroke-opacity: 0.25; stroke-width: 0.8; stroke-linecap: square"/>
     </g>
     <g id="line2d_81">
      <g>
       <use xlink:href="#mc084ae6fce" x="49.842188" y="116.944262" style="stroke: #000000; stroke-width: 0.8"/>
      </g>
     </g>
     <g id="text_14">
      <!-- 125 -->
      <g transform="translate(21.845938 121.123403) scale(0.11 -0.11)">
       <use xlink:href="#DejaVuSans-31"/>
       <use xlink:href="#DejaVuSans-32" transform="translate(63.623047 0)"/>
       <use xlink:href="#DejaVuSans-35" transform="translate(127.246094 0)"/>
      </g>
     </g>
    </g>
    <g id="ytick_7">
     <g id="line2d_82">
      <path d="M 49.842188 93.065214 
L 486.645089 93.065214 
" clip-path="url(#pb5382152c9)" style="fill: none; stroke: #b0b0b0; stroke-opacity: 0.25; stroke-width: 0.8; stroke-linecap: square"/>
     </g>
     <g id="line2d_83">
      <g>
       <use xlink:href="#mc084ae6fce" x="49.842188" y="93.065214" style="stroke: #000000; stroke-width: 0.8"/>
      </g>
     </g>
     <g id="text_15">
      <!-- 150 -->
      <g transform="translate(21.845938 97.244355) scale(0.11 -0.11)">
       <use xlink:href="#DejaVuSans-31"/>
       <use xlink:href="#DejaVuSans-35" transform="translate(63.623047 0)"/>
       <use xlink:href="#DejaVuSans-30" transform="translate(127.246094 0)"/>
      </g>
     </g>
    </g>
    <g id="ytick_8">
     <g id="line2d_84">
      <path d="M 49.842188 69.186167 
L 486.645089 69.186167 
" clip-path="url(#pb5382152c9)" style="fill: none; stroke: #b0b0b0; stroke-opacity: 0.25; stroke-width: 0.8; stroke-linecap: square"/>
     </g>
     <g id="line2d_85">
      <g>
       <use xlink:href="#mc084ae6fce" x="49.842188" y="69.186167" style="stroke: #000000; stroke-width: 0.8"/>
      </g>
     </g>
     <g id="text_16">
      <!-- 175 -->
      <g transform="translate(21.845938 73.365307) scale(0.11 -0.11)">
       <use xlink:href="#DejaVuSans-31"/>
       <use xlink:href="#DejaVuSans-37" transform="translate(63.623047 0)"/>
       <use xlink:href="#DejaVuSans-35" transform="translate(127.246094 0)"/>
      </g>
     </g>
    </g>
    <g id="ytick_9">
     <g id="line2d_86">
      <path d="M 49.842188 45.307119 
L 486.645089 45.307119 
" clip-path="url(#pb5382152c9)" style="fill: none; stroke: #b0b0b0; stroke-opacity: 0.25; stroke-width: 0.8; stroke-linecap: square"/>
     </g>
     <g id="line2d_87">
      <g>
       <use xlink:href="#mc084ae6fce" x="49.842188" y="45.307119" style="stroke: #000000; stroke-width: 0.8"/>
      </g>
     </g>
     <g id="text_17">
      <!-- 200 -->
      <g transform="translate(21.845938 49.48626) scale(0.11 -0.11)">
       <use xlink:href="#DejaVuSans-32"/>
       <use xlink:href="#DejaVuSans-30" transform="translate(63.623047 0)"/>
       <use xlink:href="#DejaVuSans-30" transform="translate(127.246094 0)"/>
      </g>
     </g>
    </g>
    <g id="text_18">
     <!-- Count -->
     <g transform="translate(15.558281 152.380781) rotate(-90) scale(0.11 -0.11)">
      <defs>
       <path id="DejaVuSans-43" d="M 4122 4306 
L 4122 3641 
Q 3803 3938 3442 4084 
Q 3081 4231 2675 4231 
Q 1875 4231 1450 3742 
Q 1025 3253 1025 2328 
Q 1025 1406 1450 917 
Q 1875 428 2675 428 
Q 3081 428 3442 575 
Q 3803 722 4122 1019 
L 4122 359 
Q 3791 134 3420 21 
Q 3050 -91 2638 -91 
Q 1578 -91 968 557 
Q 359 1206 359 2328 
Q 359 3453 968 4101 
Q 1578 4750 2638 4750 
Q 3056 4750 3426 4639 
Q 3797 4528 4122 4306 
z
" transform="scale(0.015625)"/>
       <path id="DejaVuSans-74" d="M 1172 4494 
L 1172 3500 
L 2356 3500 
L 2356 3053 
L 1172 3053 
L 1172 1153 
Q 1172 725 1289 603 
Q 1406 481 1766 481 
L 2356 481 
L 2356 0 
L 1766 0 
Q 1100 0 847 248 
Q 594 497 594 1153 
L 594 3053 
L 172 3053 
L 172 3500 
L 594 3500 
L 594 4494 
L 1172 4494 
z
" transform="scale(0.015625)"/>
      </defs>
      <use xlink:href="#DejaVuSans-43"/>
      <use xlink:href="#DejaVuSans-6f" transform="translate(69.824219 0)"/>
      <use xlink:href="#DejaVuSans-75" transform="translate(131.005859 0)"/>
      <use xlink:href="#DejaVuSans-6e" transform="translate(194.384766 0)"/>
      <use xlink:href="#DejaVuSans-74" transform="translate(257.763672 0)"/>
     </g>
    </g>
   </g>
   <g id="line2d_88">
    <path d="M 325.335759 236.3395 
L 325.335759 35.7555 
" clip-path="url(#pb5382152c9)" style="fill: none; stroke-dasharray: 6.66,2.88; stroke-dashoffset: 0; stroke: #dc2626; stroke-width: 1.8"/>
   </g>
   <g id="line2d_89">
    <path d="M 289.386546 236.3395 
L 289.386546 35.7555 
" clip-path="url(#pb5382152c9)" style="fill: none; stroke: #16a34a; stroke-width: 1.8; stroke-linecap: square"/>
   </g>
   <g id="patch_52">
    <path d="M 49.842188 236.3395 
L 49.842188 35.7555 
" style="fill: none; stroke: #000000; stroke-width: 0.8; stroke-linejoin: miter; stroke-linecap: square"/>
   </g>
   <g id="patch_53">
    <path d="M 49.842188 236.3395 
L 486.645089 236.3395 
" style="fill: none; stroke: #000000; stroke-width: 0.8; stroke-linejoin: miter; stroke-linecap: square"/>
   </g>
   <g id="text_19">
    <!-- Charge distribution — MEPS HC-233 (n=3,165) -->
    <g transform="translate(127.583013 16.318125) scale(0.12 -0.12)">
     <defs>
      <path id="DejaVuSans-64" d="M 2906 2969 
L 2906 4863 
L 3481 4863 
L 3481 0 
L 2906 0 
L 2906 525 
Q 2725 213 2448 61 
Q 2172 -91 1784 -91 
Q 1150 -91 751 415 
Q 353 922 353 1747 
Q 353 2572 751 3078 
Q 1150 3584 1784 3584 
Q 2172 3584 2448 3432 
Q 2725 3281 2906 2969 
z
M 947 1747 
Q 947 1113 1208 752 
Q 1469 391 1925 391 
Q 2381 391 2643 752 
Q 2906 1113 2906 1747 
Q 2906 2381 2643 2742 
Q 2381 3103 1925 3103 
Q 1469 3103 1208 2742 
Q 947 2381 947 1747 
z
" transform="scale(0.015625)"/>
      <path id="DejaVuSans-69" d="M 603 3500 
L 1178 3500 
L 1178 0 
L 603 0 
L 603 3500 
z
M 603 4863 
L 1178 4863 
L 1178 4134 
L 603 4134 
L 603 4863 
z
" transform="scale(0.015625)"/>
      <path id="DejaVuSans-62" d="M 3116 1747 
Q 3116 2381 2855 2742 
Q 2594 3103 2138 3103 
Q 1681 3103 1420 2742 
Q 1159 2381 1159 1747 
Q 1159 1113 1420 752 
Q 1681 391 2138 391 
Q 2594 391 2855 752 
Q 3116 1113 3116 1747 
z
M 1159 2969 
Q 1341 3281 1617 3432 
Q 1894 3584 2278 3584 
Q 2916 3584 3314 3078 
Q 3713 2572 3713 1747 
Q 3713 922 3314 415 
Q 2916 -91 2278 -91 
Q 1894 -91 1617 61 
Q 1341 213 1159 525 
L 1159 0 
L 581 0 
L 581 4863 
L 1159 4863 
L 1159 2969 
z
" transform="scale(0.015625)"/>
      <path id="DejaVuSans-2014" d="M 313 1978 
L 6088 1978 
L 6088 1528 
L 313 1528 
L 313 1978 
z
" transform="scale(0.015625)"/>
      <path id="DejaVuSans-4d" d="M 628 4666 
L 1569 4666 
L 2759 1491 
L 3956 4666 
L 4897 4666 
L 4897 0 
L 4281 0 
L 4281 4097 
L 3078 897 
L 2444 897 
L 1241 4097 
L 1241 0 
L 628 0 
L 628 4666 
z
" transform="scale(0.015625)"/>
      <path id="DejaVuSans-45" d="M 628 4666 
L 3578 4666 
L 3578 4134 
L 1259 4134 
L 1259 2753 
L 3481 2753 
L 3481 2222 
L 1259 2222 
L 1259 531 
L 3634 531 
L 3634 0 
L 628 0 
L 628 4666 
z
" transform="scale(0.015625)"/>
      <path id="DejaVuSans-50" d="M 1259 4147 
L 1259 2394 
L 2053 2394 
Q 2494 2394 2734 2622 
Q 2975 2850 2975 3272 
Q 2975 3691 2734 3919 
Q 2494 4147 2053 4147 
L 1259 4147 
z
M 628 4666 
L 2053 4666 
Q 2838 4666 3239 4311 
Q 3641 3956 3641 3272 
Q 3641 2581 3239 2228 
Q 2838 1875 2053 1875 
L 1259 1875 
L 1259 0 
L 628 0 
L 628 4666 
z
" transform="scale(0.015625)"/>
      <path id="DejaVuSans-48" d="M 628 4666 
L 1259 4666 
L 1259 2753 
L 3553 2753 
L 3553 4666 
L 4184 4666 
L 4184 0 
L 3553 0 
L 3553 2222 
L 1259 2222 
L 1259 0 
L 628 0 
L 628 4666 
z
" transform="scale(0.015625)"/>
      <path id="DejaVuSans-2d" d="M 313 2009 
L 1997 2009 
L 1997 1497 
L 313 1497 
L 313 2009 
z
" transform="scale(0.015625)"/>
      <path id="DejaVuSans-33" d="M 2597 2516 
Q 3050 2419 3304 2112 
Q 3559 1806 3559 1356 
Q 3559 666 3084 287 
Q 2609 -91 1734 -91 
Q 1441 -91 1130 -33 
Q 819 25 488 141 
L 488 750 
Q 750 597 1062 519 
Q 1375 441 1716 441 
Q 2309 441 2620 675 
Q 2931 909 2931 1356 
Q 2931 1769 2642 2001 
Q 2353 2234 1838 2234 
L 1294 2234 
L 1294 2753 
L 1863 2753 
Q 2328 2753 2575 2939 
Q 2822 3125 2822 3475 
Q 2822 3834 2567 4026 
Q 2313 4219 1838 4219 
Q 1578 4219 1281 4162 
Q 984 4106 628 3988 
L 628 4550 
Q 988 4650 1302 4700 
Q 1616 4750 1894 4750 
Q 2613 4750 3031 4423 
Q 3450 4097 3450 3541 
Q 3450 3153 3228 2886 
Q 3006 2619 2597 2516 
z
" transform="scale(0.015625)"/>
      <path id="DejaVuSans-3d" d="M 678 2906 
L 4684 2906 
L 4684 2381 
L 678 2381 
L 678 2906 
z
M 678 1631 
L 4684 1631 
L 4684 1100 
L 678 1100 
L 678 1631 
z
" transform="scale(0.015625)"/>
      <path id="DejaVuSans-36" d="M 2113 2584 
Q 1688 2584 1439 2293 
Q 1191 2003 1191 1497 
Q 1191 994 1439 701 
Q 1688 409 2113 409 
Q 2538 409 2786 701 
Q 3034 994 3034 1497 
Q 3034 2003 2786 2293 
Q 2538 2584 2113 2584 
z
M 3366 4563 
L 3366 3988 
Q 3128 4100 2886 4159 
Q 2644 4219 2406 4219 
Q 1781 4219 1451 3797 
Q 1122 3375 1075 2522 
Q 1259 2794 1537 2939 
Q 1816 3084 2150 3084 
Q 2853 3084 3261 2657 
Q 3669 2231 3669 1497 
Q 3669 778 3244 343 
Q 2819 -91 2113 -91 
Q 1303 -91 875 529 
Q 447 1150 447 2328 
Q 447 3434 972 4092 
Q 1497 4750 2381 4750 
Q 2619 4750 2861 4703 
Q 3103 4656 3366 4563 
z
" transform="scale(0.015625)"/>
     </defs>
     <use xlink:href="#DejaVuSans-43"/>
     <use xlink:href="#DejaVuSans-68" transform="translate(69.824219 0)"/>
     <use xlink:href="#DejaVuSans-61" transform="translate(133.203125 0)"/>
     <use xlink:href="#DejaVuSans-72" transform="translate(194.482422 0)"/>
     <use xlink:href="#DejaVuSans-67" transform="translate(233.845703 0)"/>
     <use xlink:href="#DejaVuSans-65" transform="translate(297.322266 0)"/>
     <use xlink:href="#DejaVuSans-20" transform="translate(358.845703 0)"/>
     <use xlink:href="#DejaVuSans-64" transform="translate(390.632812 0)"/>
     <use xlink:href="#DejaVuSans-69" transform="translate(454.109375 0)"/>
     <use xlink:href="#DejaVuSans-73" transform="translate(481.892578 0)"/>
     <use xlink:href="#DejaVuSans-74" transform="translate(533.992188 0)"/>
     <use xlink:href="#DejaVuSans-72" transform="translate(573.201172 0)"/>
     <use xlink:href="#DejaVuSans-69" transform="translate(614.314453 0)"/>
     <use xlink:href="#DejaVuSans-62" transform="translate(642.097656 0)"/>
     <use xlink:href="#DejaVuSans-75" transform="translate(705.574219 0)"/>
     <use xlink:href="#DejaVuSans-74" transform="translate(768.953125 0)"/>
     <use xlink:href="#DejaVuSans-69" transform="translate(808.162109 0)"/>
     <use xlink:href="#DejaVuSans-6f" transform="translate(835.945312 0)"/>
     <use xlink:href="#DejaVuSans-6e" transform="translate(897.126953 0)"/>
     <use xlink:href="#DejaVuSans-20" transform="translate(960.505859 0)"/>
     <use xlink:href="#DejaVuSans-2014" transform="translate(992.292969 0)"/>
     <use xlink:href="#DejaVuSans-20" transform="translate(1092.292969 0)"/>
     <use xlink:href="#DejaVuSans-4d" transform="translate(1124.080078 0)"/>
     <use xlink:href="#DejaVuSans-45" transform="translate(1210.359375 0)"/>
     <use xlink:href="#DejaVuSans-50" transform="translate(1273.542969 0)"/>
     <use xlink:href="#DejaVuSans-53" transform="translate(1333.845703 0)"/>
     <use xlink:href="#DejaVuSans-20" transform="translate(1397.322266 0)"/>
     <use xlink:href="#DejaVuSans-48" transform="translate(1429.109375 0)"/>
     <use xlink:href="#DejaVuSans-43" transform="translate(1504.304688 0)"/>
     <use xlink:href="#DejaVuSans-2d" transform="translate(1574.128906 0)"/>
     <use xlink:href="#DejaVuSans-32" transform="translate(1610.212891 0)"/>
     <use xlink:href="#DejaVuSans-33" transform="translate(1673.835938 0)"/>
     <use xlink:href="#DejaVuSans-33" transform="translate(1737.458984 0)"/>
     <use xlink:href="#DejaVuSans-20" transform="translate(1801.082031 0)"/>
     <use xlink:href="#DejaVuSans-28" transform="translate(1832.869141 0)"/>
     <use xlink:href="#DejaVuSans-6e" transform="translate(1871.882812 0)"/>
     <use xlink:href="#DejaVuSans-3d" transform="translate(1935.261719 0)"/>
     <use xlink:href="#DejaVuSans-33" transform="translate(2019.050781 0)"/>
     <use xlink:href="#DejaVuSans-2c" transform="translate(2082.673828 0)"/>
     <use xlink:href="#DejaVuSans-31" transform="translate(2114.460938 0)"/>
     <use xlink:href="#DejaVuSans-36" transform="translate(2178.083984 0)"/>
     <use xlink:href="#DejaVuSans-35" transform="translate(2241.707031 0)"/>
     <use xlink:href="#DejaVuSans-29" transform="translate(2305.330078 0)"/>
    </g>
    <!-- Almost nobody pays the mean; quantile modeling captures the full range. -->
    <g transform="translate(46.081451 29.7555) scale(0.12 -0.12)">
     <defs>
      <path id="DejaVuSans-6d" d="M 3328 2828 
Q 3544 3216 3844 3400 
Q 4144 3584 4550 3584 
Q 5097 3584 5394 3201 
Q 5691 2819 5691 2113 
L 5691 0 
L 5113 0 
L 5113 2094 
Q 5113 2597 4934 2840 
Q 4756 3084 4391 3084 
Q 3944 3084 3684 2787 
Q 3425 2491 3425 1978 
L 3425 0 
L 2847 0 
L 2847 2094 
Q 2847 2600 2669 2842 
Q 2491 3084 2119 3084 
Q 1678 3084 1418 2786 
Q 1159 2488 1159 1978 
L 1159 0 
L 581 0 
L 581 3500 
L 1159 3500 
L 1159 2956 
Q 1356 3278 1631 3431 
Q 1906 3584 2284 3584 
Q 2666 3584 2933 3390 
Q 3200 3197 3328 2828 
z
" transform="scale(0.015625)"/>
      <path id="DejaVuSans-79" d="M 2059 -325 
Q 1816 -950 1584 -1140 
Q 1353 -1331 966 -1331 
L 506 -1331 
L 506 -850 
L 844 -850 
Q 1081 -850 1212 -737 
Q 1344 -625 1503 -206 
L 1606 56 
L 191 3500 
L 800 3500 
L 1894 763 
L 2988 3500 
L 3597 3500 
L 2059 -325 
z
" transform="scale(0.015625)"/>
      <path id="DejaVuSans-70" d="M 1159 525 
L 1159 -1331 
L 581 -1331 
L 581 3500 
L 1159 3500 
L 1159 2969 
Q 1341 3281 1617 3432 
Q 1894 3584 2278 3584 
Q 2916 3584 3314 3078 
Q 3713 2572 3713 1747 
Q 3713 922 3314 415 
Q 2916 -91 2278 -91 
Q 1894 -91 1617 61 
Q 1341 213 1159 525 
z
M 3116 1747 
Q 3116 2381 2855 2742 
Q 2594 3103 2138 3103 
Q 1681 3103 1420 2742 
Q 1159 2381 1159 1747 
Q 1159 1113 1420 752 
Q 1681 391 2138 391 
Q 2594 391 2855 752 
Q 3116 1113 3116 1747 
z
" transform="scale(0.015625)"/>
      <path id="DejaVuSans-3b" d="M 750 3309 
L 1409 3309 
L 1409 2516 
L 750 2516 
L 750 3309 
z
M 750 794 
L 1409 794 
L 1409 256 
L 897 -744 
L 494 -744 
L 750 256 
L 750 794 
z
" transform="scale(0.015625)"/>
      <path id="DejaVuSans-71" d="M 947 1747 
Q 947 1113 1208 752 
Q 1469 391 1925 391 
Q 2381 391 2643 752 
Q 2906 1113 2906 1747 
Q 2906 2381 2643 2742 
Q 2381 3103 1925 3103 
Q 1469 3103 1208 2742 
Q 947 2381 947 1747 
z
M 2906 525 
Q 2725 213 2448 61 
Q 2172 -91 1784 -91 
Q 1150 -91 751 415 
Q 353 922 353 1747 
Q 353 2572 751 3078 
Q 1150 3584 1784 3584 
Q 2172 3584 2448 3432 
Q 2725 3281 2906 2969 
L 2906 3500 
L 3481 3500 
L 3481 -1331 
L 2906 -1331 
L 2906 525 
z
" transform="scale(0.015625)"/>
      <path id="DejaVuSans-66" d="M 2375 4863 
L 2375 4384 
L 1825 4384 
Q 1516 4384 1395 4259 
Q 1275 4134 1275 3809 
L 1275 3500 
L 2222 3500 
L 2222 3053 
L 1275 3053 
L 1275 0 
L 697 0 
L 697 3053 
L 147 3053 
L 147 3500 
L 697 3500 
L 697 3744 
Q 697 4328 969 4595 
Q 1241 4863 1831 4863 
L 2375 4863 
z
" transform="scale(0.015625)"/>
      <path id="DejaVuSans-2e" d="M 684 794 
L 1344 794 
L 1344 0 
L 684 0 
L 684 794 
z
" transform="scale(0.015625)"/>
     </defs>
     <use xlink:href="#DejaVuSans-41"/>
     <use xlink:href="#DejaVuSans-6c" transform="translate(68.408203 0)"/>
     <use xlink:href="#DejaVuSans-6d" transform="translate(96.191406 0)"/>
     <use xlink:href="#DejaVuSans-6f" transform="translate(193.603516 0)"/>
     <use xlink:href="#DejaVuSans-73" transform="translate(254.785156 0)"/>
     <use xlink:href="#DejaVuSans-74" transform="translate(306.884766 0)"/>
     <use xlink:href="#DejaVuSans-20" transform="translate(346.09375 0)"/>
     <use xlink:href="#DejaVuSans-6e" transform="translate(377.880859 0)"/>
     <use xlink:href="#DejaVuSans-6f" transform="translate(441.259766 0)"/>
     <use xlink:href="#DejaVuSans-62" transform="translate(502.441406 0)"/>
     <use xlink:href="#DejaVuSans-6f" transform="translate(565.917969 0)"/>
     <use xlink:href="#DejaVuSans-64" transform="translate(627.099609 0)"/>
     <use xlink:href="#DejaVuSans-79" transform="translate(690.576172 0)"/>
     <use xlink:href="#DejaVuSans-20" transform="translate(749.755859 0)"/>
     <use xlink:href="#DejaVuSans-70" transform="translate(781.542969 0)"/>
     <use xlink:href="#DejaVuSans-61" transform="translate(845.019531 0)"/>
     <use xlink:href="#DejaVuSans-79" transform="translate(906.298828 0)"/>
     <use xlink:href="#DejaVuSans-73" transform="translate(965.478516 0)"/>
     <use xlink:href="#DejaVuSans-20" transform="translate(1017.578125 0)"/>
     <use xlink:href="#DejaVuSans-74" transform="translate(1049.365234 0)"/>
     <use xlink:href="#DejaVuSans-68" transform="translate(1088.574219 0)"/>
     <use xlink:href="#DejaVuSans-65" transform="translate(1151.953125 0)"/>
     <use xlink:href="#DejaVuSans-20" transform="translate(1213.476562 0)"/>
     <use xlink:href="#DejaVuSans-6d" transform="translate(1245.263672 0)"/>
     <use xlink:href="#DejaVuSans-65" transform="translate(1342.675781 0)"/>
     <use xlink:href="#DejaVuSans-61" transform="translate(1404.199219 0)"/>
     <use xlink:href="#DejaVuSans-6e" transform="translate(1465.478516 0)"/>
     <use xlink:href="#DejaVuSans-3b" transform="translate(1528.857422 0)"/>
     <use xlink:href="#DejaVuSans-20" transform="translate(1562.548828 0)"/>
     <use xlink:href="#DejaVuSans-71" transform="translate(1594.335938 0)"/>
     <use xlink:href="#DejaVuSans-75" transform="translate(1657.8125 0)"/>
     <use xlink:href="#DejaVuSans-61" transform="translate(1721.191406 0)"/>
     <use xlink:href="#DejaVuSans-6e" transform="translate(1782.470703 0)"/>
     <use xlink:href="#DejaVuSans-74" transform="translate(1845.849609 0)"/>
     <use xlink:href="#DejaVuSans-69" transform="translate(1885.058594 0)"/>
     <use xlink:href="#DejaVuSans-6c" transform="translate(1912.841797 0)"/>
     <use xlink:href="#DejaVuSans-65" transform="translate(1940.625 0)"/>
     <use xlink:href="#DejaVuSans-20" transform="translate(2002.148438 0)"/>
     <use xlink:href="#DejaVuSans-6d" transform="translate(2033.935547 0)"/>
     <use xlink:href="#DejaVuSans-6f" transform="translate(2131.347656 0)"/>
     <use xlink:href="#DejaVuSans-64" transform="translate(2192.529297 0)"/>
     <use xlink:href="#DejaVuSans-65" transform="translate(2256.005859 0)"/>
     <use xlink:href="#DejaVuSans-6c" transform="translate(2317.529297 0)"/>
     <use xlink:href="#DejaVuSans-69" transform="translate(2345.3125 0)"/>
     <use xlink:href="#DejaVuSans-6e" transform="translate(2373.095703 0)"/>
     <use xlink:href="#DejaVuSans-67" transform="translate(2436.474609 0)"/>
     <use xlink:href="#DejaVuSans-20" transform="translate(2499.951172 0)"/>
     <use xlink:href="#DejaVuSans-63" transform="translate(2531.738281 0)"/>
     <use xlink:href="#DejaVuSans-61" transform="translate(2586.71875 0)"/>
     <use xlink:href="#DejaVuSans-70" transform="translate(2647.998047 0)"/>
     <use xlink:href="#DejaVuSans-74" transform="translate(2711.474609 0)"/>
     <use xlink:href="#DejaVuSans-75" transform="translate(2750.683594 0)"/>
     <use xlink:href="#DejaVuSans-72" transform="translate(2814.0625 0)"/>
     <use xlink:href="#DejaVuSans-65" transform="translate(2852.925781 0)"/>
     <use xlink:href="#DejaVuSans-73" transform="translate(2914.449219 0)"/>
     <use xlink:href="#DejaVuSans-20" transform="translate(2966.548828 0)"/>
     <use xlink:href="#DejaVuSans-74" transform="translate(2998.335938 0)"/>
     <use xlink:href="#DejaVuSans-68" transform="translate(3037.544922 0)"/>
     <use xlink:href="#DejaVuSans-65" transform="translate(3100.923828 0)"/>
     <use xlink:href="#DejaVuSans-20" transform="translate(3162.447266 0)"/>
     <use xlink:href="#DejaVuSans-66" transform="translate(3194.234375 0)"/>
     <use xlink:href="#DejaVuSans-75" transform="translate(3229.439453 0)"/>
     <use xlink:href="#DejaVuSans-6c" transform="translate(3292.818359 0)"/>
     <use xlink:href="#DejaVuSans-6c" transform="translate(3320.601562 0)"/>
     <use xlink:href="#DejaVuSans-20" transform="translate(3348.384766 0)"/>
     <use xlink:href="#DejaVuSans-72" transform="translate(3380.171875 0)"/>
     <use xlink:href="#DejaVuSans-61" transform="translate(3421.285156 0)"/>
     <use xlink:href="#DejaVuSans-6e" transform="translate(3482.564453 0)"/>
     <use xlink:href="#DejaVuSans-67" transform="translate(3545.943359 0)"/>
     <use xlink:href="#DejaVuSans-65" transform="translate(3609.419922 0)"/>
     <use xlink:href="#DejaVuSans-2e" transform="translate(3670.943359 0)"/>
    </g>
   </g>
   <g id="legend_1">
    <g id="patch_54">
     <path d="M 373.102901 73.11175 
L 479.645089 73.11175 
Q 481.645089 73.11175 481.645089 71.11175 
L 481.645089 42.7555 
Q 481.645089 40.7555 479.645089 40.7555 
L 373.102901 40.7555 
Q 371.102901 40.7555 371.102901 42.7555 
L 371.102901 71.11175 
Q 371.102901 73.11175 373.102901 73.11175 
z
" style="fill: #ffffff; opacity: 0.8; stroke: #cccccc; stroke-linejoin: miter"/>
    </g>
    <g id="line2d_90">
     <path d="M 375.102901 48.853938 
L 385.102901 48.853938 
L 395.102901 48.853938 
" style="fill: none; stroke-dasharray: 6.66,2.88; stroke-dashoffset: 0; stroke: #dc2626; stroke-width: 1.8"/>
    </g>
    <g id="text_20">
     <!-- Mean $10,130 -->
     <g transform="translate(403.102901 52.353938) scale(0.1 -0.1)">
      <use xlink:href="#DejaVuSans-4d"/>
      <use xlink:href="#DejaVuSans-65" transform="translate(86.279297 0)"/>
      <use xlink:href="#DejaVuSans-61" transform="translate(147.802734 0)"/>
      <use xlink:href="#DejaVuSans-6e" transform="translate(209.082031 0)"/>
      <use xlink:href="#DejaVuSans-20" transform="translate(272.460938 0)"/>
      <use xlink:href="#DejaVuSans-24" transform="translate(304.248047 0)"/>
      <use xlink:href="#DejaVuSans-31" transform="translate(367.871094 0)"/>
      <use xlink:href="#DejaVuSans-30" transform="translate(431.494141 0)"/>
      <use xlink:href="#DejaVuSans-2c" transform="translate(495.117188 0)"/>
      <use xlink:href="#DejaVuSans-31" transform="translate(526.904297 0)"/>
      <use xlink:href="#DejaVuSans-33" transform="translate(590.527344 0)"/>
      <use xlink:href="#DejaVuSans-30" transform="translate(654.150391 0)"/>
     </g>
    </g>
    <g id="line2d_91">
     <path d="M 375.102901 63.532063 
L 385.102901 63.532063 
L 395.102901 63.532063 
" style="fill: none; stroke: #16a34a; stroke-width: 1.8; stroke-linecap: square"/>
    </g>
    <g id="text_21">
     <!-- Median $2,769 -->
     <g transform="translate(403.102901 67.032063) scale(0.1 -0.1)">
      <defs>
       <path id="DejaVuSans-39" d="M 703 97 
L 703 672 
Q 941 559 1184 500 
Q 1428 441 1663 441 
Q 2288 441 2617 861 
Q 2947 1281 2994 2138 
Q 2813 1869 2534 1725 
Q 2256 1581 1919 1581 
Q 1219 1581 811 2004 
Q 403 2428 403 3163 
Q 403 3881 828 4315 
Q 1253 4750 1959 4750 
Q 2769 4750 3195 4129 
Q 3622 3509 3622 2328 
Q 3622 1225 3098 567 
Q 2575 -91 1691 -91 
Q 1453 -91 1209 -44 
Q 966 3 703 97 
z
M 1959 2075 
Q 2384 2075 2632 2365 
Q 2881 2656 2881 3163 
Q 2881 3666 2632 3958 
Q 2384 4250 1959 4250 
Q 1534 4250 1286 3958 
Q 1038 3666 1038 3163 
Q 1038 2656 1286 2365 
Q 1534 2075 1959 2075 
z
" transform="scale(0.015625)"/>
      </defs>
      <use xlink:href="#DejaVuSans-4d"/>
      <use xlink:href="#DejaVuSans-65" transform="translate(86.279297 0)"/>
      <use xlink:href="#DejaVuSans-64" transform="translate(147.802734 0)"/>
      <use xlink:href="#DejaVuSans-69" transform="translate(211.279297 0)"/>
      <use xlink:href="#DejaVuSans-61" transform="translate(239.0625 0)"/>
      <use xlink:href="#DejaVuSans-6e" transform="translate(300.341797 0)"/>
      <use xlink:href="#DejaVuSans-20" transform="translate(363.720703 0)"/>
      <use xlink:href="#DejaVuSans-24" transform="translate(395.507812 0)"/>
      <use xlink:href="#DejaVuSans-32" transform="translate(459.130859 0)"/>
      <use xlink:href="#DejaVuSans-2c" transform="translate(522.753906 0)"/>
      <use xlink:href="#DejaVuSans-37" transform="translate(554.541016 0)"/>
      <use xlink:href="#DejaVuSans-36" transform="translate(618.164062 0)"/>
      <use xlink:href="#DejaVuSans-39" transform="translate(681.787109 0)"/>
     </g>
    </g>
   </g>
  </g>
 </g>
 <defs>
  <clipPath id="pb5382152c9">
   <rect x="49.842188" y="35.7555" width="436.802901" height="200.584"/>
  </clipPath>
 </defs>
</svg>
