<?xml version="1.0" encoding="utf-8" standalone="no"?>
<!DOCTYPE svg PUBLIC "-//W3C//DTD SVG 1.1//EN"
  "http://www.w3.org/Graphics/SVG/1.1/DTD/svg11.dtd">
<svg xmlns:xlink="http://www.w3.org/1999/xlink" width="429.292344pt" height="347.831375pt" viewBox="0 0 429.292344 347.831375" xmlns="http://www.w3.org/2000/svg" version="1.1">
 <metadata>
  <rdf:RDF xmlns:dc="http://purl.org/dc/elements/1.1/" xmlns:cc="http://creativecommons.org/ns#" xmlns:rdf="http://www.w3.org/1999/02/22-rdf-syntax-ns#">
   <cc:Work>
    <dc:type rdf:resource="http://purl.org/dc/dcmitype/StillImage"/>
    <dc:date>2026-06-07T04:21:30.513373</dc:date>
    <dc:format>image/svg+xml</dc:format>
    <dc:creator>
     <cc:Agent>
      <dc:title>Matplotlib v3.10.8, https://matplotlib.org/</dc:title>
     </cc:Agent>
    </dc:creator>
   </cc:Work>
  </rdf:RDF>
 </metadata>
 <defs>
  <style type="text/css">*{stroke-linejoin: round; stroke-linecap: butt}</style>
 </defs>
 <g id="figure_1">
  <g id="patch_1">
   <path d="M 0 347.831375 
L 429.292344 347.831375 
L 429.292344 0 
L 0 0 
z
" style="fill: #ffffff"/>
  </g>
  <g id="axes_1">
   <g id="patch_2">
    <path d="M 60.293906 308.3395 
L 399.753906 308.3395 
L 399.753906 35.7555 
L 60.293906 35.7555 
z
" style="fill: #ffffff"/>
   </g>
   <g id="line2d_1">
    <path d="M 60.293906 308.3395 
L 63.722795 305.586126 
L 67.151684 302.832753 
L 70.580573 300.079379 
L 74.009462 297.326005 
L 77.438351 294.572631 
L 80.86724 291.819258 
L 84.296128 289.065884 
L 87.725017 286.31251 
L 91.153906 283.559136 
L 94.582795 280.805763 
L 98.011684 278.052389 
L 101.440573 275.299015 
L 104.869462 272.545641 
L 108.298351 269.792268 
L 111.72724 267.038894 
L 115.156128 264.28552 
L 118.585017 261.532146 
L 122.013906 258.778773 
L 125.442795 256.025399 
L 128.871684 253.272025 
L 132.300573 250.518652 
L 135.729462 247.765278 
L 139.158351 245.011904 
L 142.58724 242.25853 
L 146.016128 239.505157 
L 149.445017 236.751783 
L 152.873906 233.998409 
L 156.302795 231.245035 
L 159.731684 228.491662 
L 163.160573 225.738288 
L 166.589462 222.984914 
L 170.018351 220.23154 
L 173.44724 217.478167 
L 176.876128 214.724793 
L 180.305017 211.971419 
L 183.733906 209.218045 
L 187.162795 206.464672 
L 190.591684 203.711298 
L 194.020573 200.957924 
L 197.449462 198.204551 
L 200.878351 195.451177 
L 204.30724 192.697803 
L 207.736128 189.944429 
L 211.165017 187.191056 
L 214.593906 184.437682 
L 218.022795 181.684308 
L 221.451684 178.930934 
L 224.880573 176.177561 
L 228.309462 173.424187 
L 231.738351 170.670813 
L 235.16724 167.917439 
L 238.596128 165.164066 
L 242.025017 162.410692 
L 245.453906 159.657318 
L 248.882795 156.903944 
L 252.311684 154.150571 
L 255.740573 151.397197 
L 259.169462 148.643823 
L 262.598351 145.890449 
L 266.02724 143.137076 
L 269.456128 140.383702 
L 272.885017 137.630328 
L 276.313906 134.876955 
L 279.742795 132.123581 
L 283.171684 129.370207 
L 286.600573 126.616833 
L 290.029462 123.86346 
L 293.458351 121.110086 
L 296.88724 118.356712 
L 300.316128 115.603338 
L 303.745017 112.849965 
L 307.173906 110.096591 
L 310.602795 107.343217 
L 314.031684 104.589843 
L 317.460573 101.83647 
L 320.889462 99.083096 
L 324.318351 96.329722 
L 327.74724 93.576348 
L 331.176128 90.822975 
L 334.605017 88.069601 
L 338.033906 85.316227 
L 341.462795 82.562854 
L 344.891684 79.80948 
L 348.320573 77.056106 
L 351.749462 74.302732 
L 355.178351 71.549359 
L 358.60724 68.795985 
L 362.036128 66.042611 
L 365.465017 63.289237 
L 368.893906 60.535864 
L 372.322795 57.78249 
L 375.751684 55.029116 
L 379.180573 52.275742 
L 382.609462 49.522369 
L 386.038351 46.768995 
L 389.46724 44.015621 
L 392.896128 41.262247 
L 396.325017 38.508874 
L 399.753906 35.7555 
" clip-path="url(#p69cfd4246c)" style="fill: none; stroke-dasharray: 4.44,1.92; stroke-dashoffset: 0; stroke: #16a34a; stroke-width: 1.2"/>
   </g>
   <g id="patch_3">
    <path d="M 60.293906 167.573589 
L 399.753906 167.573589 
L 399.753906 123.633147 
L 60.293906 123.633147 
z
" clip-path="url(#p69cfd4246c)" style="fill: #dc2626; opacity: 0.12; stroke: #dc2626; stroke-linejoin: miter"/>
   </g>
   <g id="matplotlib.axis_1">
    <g id="xtick_1">
     <g id="line2d_2">
      <path d="M 91.153906 308.3395 
L 91.153906 35.7555 
" clip-path="url(#p69cfd4246c)" style="fill: none; stroke: #b0b0b0; stroke-opacity: 0.25; stroke-width: 0.8; stroke-linecap: square"/>
     </g>
     <g id="line2d_3">
      <defs>
       <path id="m94f18e8170" d="M 0 0 
L 0 3.5 
" style="stroke: #000000; stroke-width: 0.8"/>
      </defs>
      <g>
       <use xlink:href="#m94f18e8170" x="91.153906" y="308.3395" style="stroke: #000000; stroke-width: 0.8"/>
      </g>
     </g>
     <g id="text_1">
      <!-- 50% -->
      <g transform="translate(78.929297 323.697781) scale(0.11 -0.11)">
       <defs>
        <path id="DejaVuSans-35" d="M 691 4666 
L 3169 4666 
L 3169 4134 
L 1269 4134 
L 1269 2991 
Q 1406 3038 1543 3061 
Q 1681 3084 1819 3084 
Q 2600 3084 3056 2656 
Q 3513 2228 3513 1497 
Q 3513 744 3044 326 
Q 2575 -91 1722 -91 
Q 1428 -91 1123 -41 
Q 819 9 494 109 
L 494 744 
Q 775 591 1075 516 
Q 1375 441 1709 441 
Q 2250 441 2565 725 
Q 2881 1009 2881 1497 
Q 2881 1984 2565 2268 
Q 2250 2553 1709 2553 
Q 1456 2553 1204 2497 
Q 953 2441 691 2322 
L 691 4666 
z
" transform="scale(0.015625)"/>
        <path id="DejaVuSans-30" d="M 2034 4250 
Q 1547 4250 1301 3770 
Q 1056 3291 1056 2328 
Q 1056 1369 1301 889 
Q 1547 409 2034 409 
Q 2525 409 2770 889 
Q 3016 1369 3016 2328 
Q 3016 3291 2770 3770 
Q 2525 4250 2034 4250 
z
M 2034 4750 
Q 2819 4750 3233 4129 
Q 3647 3509 3647 2328 
Q 3647 1150 3233 529 
Q 2819 -91 2034 -91 
Q 1250 -91 836 529 
Q 422 1150 422 2328 
Q 422 3509 836 4129 
Q 1250 4750 2034 4750 
z
" transform="scale(0.015625)"/>
        <path id="DejaVuSans-25" d="M 4653 2053 
Q 4381 2053 4226 1822 
Q 4072 1591 4072 1178 
Q 4072 772 4226 539 
Q 4381 306 4653 306 
Q 4919 306 5073 539 
Q 5228 772 5228 1178 
Q 5228 1588 5073 1820 
Q 4919 2053 4653 2053 
z
M 4653 2450 
Q 5147 2450 5437 2106 
Q 5728 1763 5728 1178 
Q 5728 594 5436 251 
Q 5144 -91 4653 -91 
Q 4153 -91 3862 251 
Q 3572 594 3572 1178 
Q 3572 1766 3864 2108 
Q 4156 2450 4653 2450 
z
M 1428 4353 
Q 1159 4353 1004 4120 
Q 850 3888 850 3481 
Q 850 3069 1003 2837 
Q 1156 2606 1428 2606 
Q 1700 2606 1854 2837 
Q 2009 3069 2009 3481 
Q 2009 3884 1853 4118 
Q 1697 4353 1428 4353 
z
M 4250 4750 
L 4750 4750 
L 1831 -91 
L 1331 -91 
L 4250 4750 
z
M 1428 4750 
Q 1922 4750 2215 4408 
Q 2509 4066 2509 3481 
Q 2509 2891 2217 2550 
Q 1925 2209 1428 2209 
Q 931 2209 642 2551 
Q 353 2894 353 3481 
Q 353 4063 643 4406 
Q 934 4750 1428 4750 
z
" transform="scale(0.015625)"/>
       </defs>
       <use xlink:href="#DejaVuSans-35"/>
       <use xlink:href="#DejaVuSans-30" transform="translate(63.623047 0)"/>
       <use xlink:href="#DejaVuSans-25" transform="translate(127.246094 0)"/>
      </g>
     </g>
    </g>
    <g id="xtick_2">
     <g id="line2d_4">
      <path d="M 152.873906 308.3395 
L 152.873906 35.7555 
" clip-path="url(#p69cfd4246c)" style="fill: none; stroke: #b0b0b0; stroke-opacity: 0.25; stroke-width: 0.8; stroke-linecap: square"/>
     </g>
     <g id="line2d_5">
      <g>
       <use xlink:href="#m94f18e8170" x="152.873906" y="308.3395" style="stroke: #000000; stroke-width: 0.8"/>
      </g>
     </g>
     <g id="text_2">
      <!-- 60% -->
      <g transform="translate(140.649297 323.697781) scale(0.11 -0.11)">
       <defs>
        <path id="DejaVuSans-36" d="M 2113 2584 
Q 1688 2584 1439 2293 
Q 1191 2003 1191 1497 
Q 1191 994 1439 701 
Q 1688 409 2113 409 
Q 2538 409 2786 701 
Q 3034 994 3034 1497 
Q 3034 2003 2786 2293 
Q 2538 2584 2113 2584 
z
M 3366 4563 
L 3366 3988 
Q 3128 4100 2886 4159 
Q 2644 4219 2406 4219 
Q 1781 4219 1451 3797 
Q 1122 3375 1075 2522 
Q 1259 2794 1537 2939 
Q 1816 3084 2150 3084 
Q 2853 3084 3261 2657 
Q 3669 2231 3669 1497 
Q 3669 778 3244 343 
Q 2819 -91 2113 -91 
Q 1303 -91 875 529 
Q 447 1150 447 2328 
Q 447 3434 972 4092 
Q 1497 4750 2381 4750 
Q 2619 4750 2861 4703 
Q 3103 4656 3366 4563 
z
" transform="scale(0.015625)"/>
       </defs>
       <use xlink:href="#DejaVuSans-36"/>
       <use xlink:href="#DejaVuSans-30" transform="translate(63.623047 0)"/>
       <use xlink:href="#DejaVuSans-25" transform="translate(127.246094 0)"/>
      </g>
     </g>
    </g>
    <g id="xtick_3">
     <g id="line2d_6">
      <path d="M 214.593906 308.3395 
L 214.593906 35.7555 
" clip-path="url(#p69cfd4246c)" style="fill: none; stroke: #b0b0b0; stroke-opacity: 0.25; stroke-width: 0.8; stroke-linecap: square"/>
     </g>
     <g id="line2d_7">
      <g>
       <use xlink:href="#m94f18e8170" x="214.593906" y="308.3395" style="stroke: #000000; stroke-width: 0.8"/>
      </g>
     </g>
     <g id="text_3">
      <!-- 70% -->
      <g transform="translate(202.369297 323.697781) scale(0.11 -0.11)">
       <defs>
        <path id="DejaVuSans-37" d="M 525 4666 
L 3525 4666 
L 3525 4397 
L 1831 0 
L 1172 0 
L 2766 4134 
L 525 4134 
L 525 4666 
z
" transform="scale(0.015625)"/>
       </defs>
       <use xlink:href="#DejaVuSans-37"/>
       <use xlink:href="#DejaVuSans-30" transform="translate(63.623047 0)"/>
       <use xlink:href="#DejaVuSans-25" transform="translate(127.246094 0)"/>
      </g>
     </g>
    </g>
    <g id="xtick_4">
     <g id="line2d_8">
      <path d="M 276.313906 308.3395 
L 276.313906 35.7555 
" clip-path="url(#p69cfd4246c)" style="fill: none; stroke: #b0b0b0; stroke-opacity: 0.25; stroke-width: 0.8; stroke-linecap: square"/>
     </g>
     <g id="line2d_9">
      <g>
       <use xlink:href="#m94f18e8170" x="276.313906" y="308.3395" style="stroke: #000000; stroke-width: 0.8"/>
      </g>
     </g>
     <g id="text_4">
      <!-- 80% -->
      <g transform="translate(264.089297 323.697781) scale(0.11 -0.11)">
       <defs>
        <path id="DejaVuSans-38" d="M 2034 2216 
Q 1584 2216 1326 1975 
Q 1069 1734 1069 1313 
Q 1069 891 1326 650 
Q 1584 409 2034 409 
Q 2484 409 2743 651 
Q 3003 894 3003 1313 
Q 3003 1734 2745 1975 
Q 2488 2216 2034 2216 
z
M 1403 2484 
Q 997 2584 770 2862 
Q 544 3141 544 3541 
Q 544 4100 942 4425 
Q 1341 4750 2034 4750 
Q 2731 4750 3128 4425 
Q 3525 4100 3525 3541 
Q 3525 3141 3298 2862 
Q 3072 2584 2669 2484 
Q 3125 2378 3379 2068 
Q 3634 1759 3634 1313 
Q 3634 634 3220 271 
Q 2806 -91 2034 -91 
Q 1263 -91 848 271 
Q 434 634 434 1313 
Q 434 1759 690 2068 
Q 947 2378 1403 2484 
z
M 1172 3481 
Q 1172 3119 1398 2916 
Q 1625 2713 2034 2713 
Q 2441 2713 2670 2916 
Q 2900 3119 2900 3481 
Q 2900 3844 2670 4047 
Q 2441 4250 2034 4250 
Q 1625 4250 1398 4047 
Q 1172 3844 1172 3481 
z
" transform="scale(0.015625)"/>
       </defs>
       <use xlink:href="#DejaVuSans-38"/>
       <use xlink:href="#DejaVuSans-30" transform="translate(63.623047 0)"/>
       <use xlink:href="#DejaVuSans-25" transform="translate(127.246094 0)"/>
      </g>
     </g>
    </g>
    <g id="xtick_5">
     <g id="line2d_10">
      <path d="M 338.033906 308.3395 
L 338.033906 35.7555 
" clip-path="url(#p69cfd4246c)" style="fill: none; stroke: #b0b0b0; stroke-opacity: 0.25; stroke-width: 0.8; stroke-linecap: square"/>
     </g>
     <g id="line2d_11">
      <g>
       <use xlink:href="#m94f18e8170" x="338.033906" y="308.3395" style="stroke: #000000; stroke-width: 0.8"/>
      </g>
     </g>
     <g id="text_5">
      <!-- 90% -->
      <g transform="translate(325.809297 323.697781) scale(0.11 -0.11)">
       <defs>
        <path id="DejaVuSans-39" d="M 703 97 
L 703 672 
Q 941 559 1184 500 
Q 1428 441 1663 441 
Q 2288 441 2617 861 
Q 2947 1281 2994 2138 
Q 2813 1869 2534 1725 
Q 2256 1581 1919 1581 
Q 1219 1581 811 2004 
Q 403 2428 403 3163 
Q 403 3881 828 4315 
Q 1253 4750 1959 4750 
Q 2769 4750 3195 4129 
Q 3622 3509 3622 2328 
Q 3622 1225 3098 567 
Q 2575 -91 1691 -91 
Q 1453 -91 1209 -44 
Q 966 3 703 97 
z
M 1959 2075 
Q 2384 2075 2632 2365 
Q 2881 2656 2881 3163 
Q 2881 3666 2632 3958 
Q 2384 4250 1959 4250 
Q 1534 4250 1286 3958 
Q 1038 3666 1038 3163 
Q 1038 2656 1286 2365 
Q 1534 2075 1959 2075 
z
" transform="scale(0.015625)"/>
       </defs>
       <use xlink:href="#DejaVuSans-39"/>
       <use xlink:href="#DejaVuSans-30" transform="translate(63.623047 0)"/>
       <use xlink:href="#DejaVuSans-25" transform="translate(127.246094 0)"/>
      </g>
     </g>
    </g>
    <g id="xtick_6">
     <g id="line2d_12">
      <path d="M 399.753906 308.3395 
L 399.753906 35.7555 
" clip-path="url(#p69cfd4246c)" style="fill: none; stroke: #b0b0b0; stroke-opacity: 0.25; stroke-width: 0.8; stroke-linecap: square"/>
     </g>
     <g id="line2d_13">
      <g>
       <use xlink:href="#m94f18e8170" x="399.753906" y="308.3395" style="stroke: #000000; stroke-width: 0.8"/>
      </g>
     </g>
     <g id="text_6">
      <!-- 100% -->
      <g transform="translate(384.029922 323.697781) scale(0.11 -0.11)">
       <defs>
        <path id="DejaVuSans-31" d="M 794 531 
L 1825 531 
L 1825 4091 
L 703 3866 
L 703 4441 
L 1819 4666 
L 2450 4666 
L 2450 531 
L 3481 531 
L 3481 0 
L 794 0 
L 794 531 
z
" transform="scale(0.015625)"/>
       </defs>
       <use xlink:href="#DejaVuSans-31"/>
       <use xlink:href="#DejaVuSans-30" transform="translate(63.623047 0)"/>
       <use xlink:href="#DejaVuSans-30" transform="translate(127.246094 0)"/>
       <use xlink:href="#DejaVuSans-25" transform="translate(190.869141 0)"/>
      </g>
     </g>
    </g>
    <g id="text_7">
     <!-- Nominal coverage -->
     <g transform="translate(179.990234 338.343719) scale(0.11 -0.11)">
      <defs>
       <path id="DejaVuSans-4e" d="M 628 4666 
L 1478 4666 
L 3547 763 
L 3547 4666 
L 4159 4666 
L 4159 0 
L 3309 0 
L 1241 3903 
L 1241 0 
L 628 0 
L 628 4666 
z
" transform="scale(0.015625)"/>
       <path id="DejaVuSans-6f" d="M 1959 3097 
Q 1497 3097 1228 2736 
Q 959 2375 959 1747 
Q 959 1119 1226 758 
Q 1494 397 1959 397 
Q 2419 397 2687 759 
Q 2956 1122 2956 1747 
Q 2956 2369 2687 2733 
Q 2419 3097 1959 3097 
z
M 1959 3584 
Q 2709 3584 3137 3096 
Q 3566 2609 3566 1747 
Q 3566 888 3137 398 
Q 2709 -91 1959 -91 
Q 1206 -91 779 398 
Q 353 888 353 1747 
Q 353 2609 779 3096 
Q 1206 3584 1959 3584 
z
" transform="scale(0.015625)"/>
       <path id="DejaVuSans-6d" d="M 3328 2828 
Q 3544 3216 3844 3400 
Q 4144 3584 4550 3584 
Q 5097 3584 5394 3201 
Q 5691 2819 5691 2113 
L 5691 0 
L 5113 0 
L 5113 2094 
Q 5113 2597 4934 2840 
Q 4756 3084 4391 3084 
Q 3944 3084 3684 2787 
Q 3425 2491 3425 1978 
L 3425 0 
L 2847 0 
L 2847 2094 
Q 2847 2600 2669 2842 
Q 2491 3084 2119 3084 
Q 1678 3084 1418 2786 
Q 1159 2488 1159 1978 
L 1159 0 
L 581 0 
L 581 3500 
L 1159 3500 
L 1159 2956 
Q 1356 3278 1631 3431 
Q 1906 3584 2284 3584 
Q 2666 3584 2933 3390 
Q 3200 3197 3328 2828 
z
" transform="scale(0.015625)"/>
       <path id="DejaVuSans-69" d="M 603 3500 
L 1178 3500 
L 1178 0 
L 603 0 
L 603 3500 
z
M 603 4863 
L 1178 4863 
L 1178 4134 
L 603 4134 
L 603 4863 
z
" transform="scale(0.015625)"/>
       <path id="DejaVuSans-6e" d="M 3513 2113 
L 3513 0 
L 2938 0 
L 2938 2094 
Q 2938 2591 2744 2837 
Q 2550 3084 2163 3084 
Q 1697 3084 1428 2787 
Q 1159 2491 1159 1978 
L 1159 0 
L 581 0 
L 581 3500 
L 1159 3500 
L 1159 2956 
Q 1366 3272 1645 3428 
Q 1925 3584 2291 3584 
Q 2894 3584 3203 3211 
Q 3513 2838 3513 2113 
z
" transform="scale(0.015625)"/>
       <path id="DejaVuSans-61" d="M 2194 1759 
Q 1497 1759 1228 1600 
Q 959 1441 959 1056 
Q 959 750 1161 570 
Q 1363 391 1709 391 
Q 2188 391 2477 730 
Q 2766 1069 2766 1631 
L 2766 1759 
L 2194 1759 
z
M 3341 1997 
L 3341 0 
L 2766 0 
L 2766 531 
Q 2569 213 2275 61 
Q 1981 -91 1556 -91 
Q 1019 -91 701 211 
Q 384 513 384 1019 
Q 384 1609 779 1909 
Q 1175 2209 1959 2209 
L 2766 2209 
L 2766 2266 
Q 2766 2663 2505 2880 
Q 2244 3097 1772 3097 
Q 1472 3097 1187 3025 
Q 903 2953 641 2809 
L 641 3341 
Q 956 3463 1253 3523 
Q 1550 3584 1831 3584 
Q 2591 3584 2966 3190 
Q 3341 2797 3341 1997 
z
" transform="scale(0.015625)"/>
       <path id="DejaVuSans-6c" d="M 603 4863 
L 1178 4863 
L 1178 0 
L 603 0 
L 603 4863 
z
" transform="scale(0.015625)"/>
       <path id="DejaVuSans-20" transform="scale(0.015625)"/>
       <path id="DejaVuSans-63" d="M 3122 3366 
L 3122 2828 
Q 2878 2963 2633 3030 
Q 2388 3097 2138 3097 
Q 1578 3097 1268 2742 
Q 959 2388 959 1747 
Q 959 1106 1268 751 
Q 1578 397 2138 397 
Q 2388 397 2633 464 
Q 2878 531 3122 666 
L 3122 134 
Q 2881 22 2623 -34 
Q 2366 -91 2075 -91 
Q 1284 -91 818 406 
Q 353 903 353 1747 
Q 353 2603 823 3093 
Q 1294 3584 2113 3584 
Q 2378 3584 2631 3529 
Q 2884 3475 3122 3366 
z
" transform="scale(0.015625)"/>
       <path id="DejaVuSans-76" d="M 191 3500 
L 800 3500 
L 1894 563 
L 2988 3500 
L 3597 3500 
L 2284 0 
L 1503 0 
L 191 3500 
z
" transform="scale(0.015625)"/>
       <path id="DejaVuSans-65" d="M 3597 1894 
L 3597 1613 
L 953 1613 
Q 991 1019 1311 708 
Q 1631 397 2203 397 
Q 2534 397 2845 478 
Q 3156 559 3463 722 
L 3463 178 
Q 3153 47 2828 -22 
Q 2503 -91 2169 -91 
Q 1331 -91 842 396 
Q 353 884 353 1716 
Q 353 2575 817 3079 
Q 1281 3584 2069 3584 
Q 2775 3584 3186 3129 
Q 3597 2675 3597 1894 
z
M 3022 2063 
Q 3016 2534 2758 2815 
Q 2500 3097 2075 3097 
Q 1594 3097 1305 2825 
Q 1016 2553 972 2059 
L 3022 2063 
z
" transform="scale(0.015625)"/>
       <path id="DejaVuSans-72" d="M 2631 2963 
Q 2534 3019 2420 3045 
Q 2306 3072 2169 3072 
Q 1681 3072 1420 2755 
Q 1159 2438 1159 1844 
L 1159 0 
L 581 0 
L 581 3500 
L 1159 3500 
L 1159 2956 
Q 1341 3275 1631 3429 
Q 1922 3584 2338 3584 
Q 2397 3584 2469 3576 
Q 2541 3569 2628 3553 
L 2631 2963 
z
" transform="scale(0.015625)"/>
       <path id="DejaVuSans-67" d="M 2906 1791 
Q 2906 2416 2648 2759 
Q 2391 3103 1925 3103 
Q 1463 3103 1205 2759 
Q 947 2416 947 1791 
Q 947 1169 1205 825 
Q 1463 481 1925 481 
Q 2391 481 2648 825 
Q 2906 1169 2906 1791 
z
M 3481 434 
Q 3481 -459 3084 -895 
Q 2688 -1331 1869 -1331 
Q 1566 -1331 1297 -1286 
Q 1028 -1241 775 -1147 
L 775 -588 
Q 1028 -725 1275 -790 
Q 1522 -856 1778 -856 
Q 2344 -856 2625 -561 
Q 2906 -266 2906 331 
L 2906 616 
Q 2728 306 2450 153 
Q 2172 0 1784 0 
Q 1141 0 747 490 
Q 353 981 353 1791 
Q 353 2603 747 3093 
Q 1141 3584 1784 3584 
Q 2172 3584 2450 3431 
Q 2728 3278 2906 2969 
L 2906 3500 
L 3481 3500 
L 3481 434 
z
" transform="scale(0.015625)"/>
      </defs>
      <use xlink:href="#DejaVuSans-4e"/>
      <use xlink:href="#DejaVuSans-6f" transform="translate(74.804688 0)"/>
      <use xlink:href="#DejaVuSans-6d" transform="translate(135.986328 0)"/>
      <use xlink:href="#DejaVuSans-69" transform="translate(233.398438 0)"/>
      <use xlink:href="#DejaVuSans-6e" transform="translate(261.181641 0)"/>
      <use xlink:href="#DejaVuSans-61" transform="translate(324.560547 0)"/>
      <use xlink:href="#DejaVuSans-6c" transform="translate(385.839844 0)"/>
      <use xlink:href="#DejaVuSans-20" transform="translate(413.623047 0)"/>
      <use xlink:href="#DejaVuSans-63" transform="translate(445.410156 0)"/>
      <use xlink:href="#DejaVuSans-6f" transform="translate(500.390625 0)"/>
      <use xlink:href="#DejaVuSans-76" transform="translate(561.572266 0)"/>
      <use xlink:href="#DejaVuSans-65" transform="translate(620.751953 0)"/>
      <use xlink:href="#DejaVuSans-72" transform="translate(682.275391 0)"/>
      <use xlink:href="#DejaVuSans-61" transform="translate(723.388672 0)"/>
      <use xlink:href="#DejaVuSans-67" transform="translate(784.667969 0)"/>
      <use xlink:href="#DejaVuSans-65" transform="translate(848.144531 0)"/>
     </g>
    </g>
   </g>
   <g id="matplotlib.axis_2">
    <g id="ytick_1">
     <g id="line2d_14">
      <path d="M 60.293906 283.559136 
L 399.753906 283.559136 
" clip-path="url(#p69cfd4246c)" style="fill: none; stroke: #b0b0b0; stroke-opacity: 0.25; stroke-width: 0.8; stroke-linecap: square"/>
     </g>
     <g id="line2d_15">
      <defs>
       <path id="m74db0f8986" d="M 0 0 
L -3.5 0 
" style="stroke: #000000; stroke-width: 0.8"/>
      </defs>
      <g>
       <use xlink:href="#m74db0f8986" x="60.293906" y="283.559136" style="stroke: #000000; stroke-width: 0.8"/>
      </g>
     </g>
     <g id="text_8">
      <!-- 50% -->
      <g transform="translate(28.844688 287.738277) scale(0.11 -0.11)">
       <use xlink:href="#DejaVuSans-35"/>
       <use xlink:href="#DejaVuSans-30" transform="translate(63.623047 0)"/>
       <use xlink:href="#DejaVuSans-25" transform="translate(127.246094 0)"/>
      </g>
     </g>
    </g>
    <g id="ytick_2">
     <g id="line2d_16">
      <path d="M 60.293906 233.998409 
L 399.753906 233.998409 
" clip-path="url(#p69cfd4246c)" style="fill: none; stroke: #b0b0b0; stroke-opacity: 0.25; stroke-width: 0.8; stroke-linecap: square"/>
     </g>
     <g id="line2d_17">
      <g>
       <use xlink:href="#m74db0f8986" x="60.293906" y="233.998409" style="stroke: #000000; stroke-width: 0.8"/>
      </g>
     </g>
     <g id="text_9">
      <!-- 60% -->
      <g transform="translate(28.844688 238.17755) scale(0.11 -0.11)">
       <use xlink:href="#DejaVuSans-36"/>
       <use xlink:href="#DejaVuSans-30" transform="translate(63.623047 0)"/>
       <use xlink:href="#DejaVuSans-25" transform="translate(127.246094 0)"/>
      </g>
     </g>
    </g>
    <g id="ytick_3">
     <g id="line2d_18">
      <path d="M 60.293906 184.437682 
L 399.753906 184.437682 
" clip-path="url(#p69cfd4246c)" style="fill: none; stroke: #b0b0b0; stroke-opacity: 0.25; stroke-width: 0.8; stroke-linecap: square"/>
     </g>
     <g id="line2d_19">
      <g>
       <use xlink:href="#m74db0f8986" x="60.293906" y="184.437682" style="stroke: #000000; stroke-width: 0.8"/>
      </g>
     </g>
     <g id="text_10">
      <!-- 70% -->
      <g transform="translate(28.844688 188.616822) scale(0.11 -0.11)">
       <use xlink:href="#DejaVuSans-37"/>
       <use xlink:href="#DejaVuSans-30" transform="translate(63.623047 0)"/>
       <use xlink:href="#DejaVuSans-25" transform="translate(127.246094 0)"/>
      </g>
     </g>
    </g>
    <g id="ytick_4">
     <g id="line2d_20">
      <path d="M 60.293906 134.876955 
L 399.753906 134.876955 
" clip-path="url(#p69cfd4246c)" style="fill: none; stroke: #b0b0b0; stroke-opacity: 0.25; stroke-width: 0.8; stroke-linecap: square"/>
     </g>
     <g id="line2d_21">
      <g>
       <use xlink:href="#m74db0f8986" x="60.293906" y="134.876955" style="stroke: #000000; stroke-width: 0.8"/>
      </g>
     </g>
     <g id="text_11">
      <!-- 80% -->
      <g transform="translate(28.844688 139.056095) scale(0.11 -0.11)">
       <use xlink:href="#DejaVuSans-38"/>
       <use xlink:href="#DejaVuSans-30" transform="translate(63.623047 0)"/>
       <use xlink:href="#DejaVuSans-25" transform="translate(127.246094 0)"/>
      </g>
     </g>
    </g>
    <g id="ytick_5">
     <g id="line2d_22">
      <path d="M 60.293906 85.316227 
L 399.753906 85.316227 
" clip-path="url(#p69cfd4246c)" style="fill: none; stroke: #b0b0b0; stroke-opacity: 0.25; stroke-width: 0.8; stroke-linecap: square"/>
     </g>
     <g id="line2d_23">
      <g>
       <use xlink:href="#m74db0f8986" x="60.293906" y="85.316227" style="stroke: #000000; stroke-width: 0.8"/>
      </g>
     </g>
     <g id="text_12">
      <!-- 90% -->
      <g transform="translate(28.844688 89.495368) scale(0.11 -0.11)">
       <use xlink:href="#DejaVuSans-39"/>
       <use xlink:href="#DejaVuSans-30" transform="translate(63.623047 0)"/>
       <use xlink:href="#DejaVuSans-25" transform="translate(127.246094 0)"/>
      </g>
     </g>
    </g>
    <g id="ytick_6">
     <g id="line2d_24">
      <path d="M 60.293906 35.7555 
L 399.753906 35.7555 
" clip-path="url(#p69cfd4246c)" style="fill: none; stroke: #b0b0b0; stroke-opacity: 0.25; stroke-width: 0.8; stroke-linecap: square"/>
     </g>
     <g id="line2d_25">
      <g>
       <use xlink:href="#m74db0f8986" x="60.293906" y="35.7555" style="stroke: #000000; stroke-width: 0.8"/>
      </g>
     </g>
     <g id="text_13">
      <!-- 100% -->
      <g transform="translate(21.845938 39.934641) scale(0.11 -0.11)">
       <use xlink:href="#DejaVuSans-31"/>
       <use xlink:href="#DejaVuSans-30" transform="translate(63.623047 0)"/>
       <use xlink:href="#DejaVuSans-30" transform="translate(127.246094 0)"/>
       <use xlink:href="#DejaVuSans-25" transform="translate(190.869141 0)"/>
      </g>
     </g>
    </g>
    <g id="text_14">
     <!-- Empirical coverage -->
     <g transform="translate(15.558281 224.895625) rotate(-90) scale(0.11 -0.11)">
      <defs>
       <path id="DejaVuSans-45" d="M 628 4666 
L 3578 4666 
L 3578 4134 
L 1259 4134 
L 1259 2753 
L 3481 2753 
L 3481 2222 
L 1259 2222 
L 1259 531 
L 3634 531 
L 3634 0 
L 628 0 
L 628 4666 
z
" transform="scale(0.015625)"/>
       <path id="DejaVuSans-70" d="M 1159 525 
L 1159 -1331 
L 581 -1331 
L 581 3500 
L 1159 3500 
L 1159 2969 
Q 1341 3281 1617 3432 
Q 1894 3584 2278 3584 
Q 2916 3584 3314 3078 
Q 3713 2572 3713 1747 
Q 3713 922 3314 415 
Q 2916 -91 2278 -91 
Q 1894 -91 1617 61 
Q 1341 213 1159 525 
z
M 3116 1747 
Q 3116 2381 2855 2742 
Q 2594 3103 2138 3103 
Q 1681 3103 1420 2742 
Q 1159 2381 1159 1747 
Q 1159 1113 1420 752 
Q 1681 391 2138 391 
Q 2594 391 2855 752 
Q 3116 1113 3116 1747 
z
" transform="scale(0.015625)"/>
      </defs>
      <use xlink:href="#DejaVuSans-45"/>
      <use xlink:href="#DejaVuSans-6d" transform="translate(63.183594 0)"/>
      <use xlink:href="#DejaVuSans-70" transform="translate(160.595703 0)"/>
      <use xlink:href="#DejaVuSans-69" transform="translate(224.072266 0)"/>
      <use xlink:href="#DejaVuSans-72" transform="translate(251.855469 0)"/>
      <use xlink:href="#DejaVuSans-69" transform="translate(292.96875 0)"/>
      <use xlink:href="#DejaVuSans-63" transform="translate(320.751953 0)"/>
      <use xlink:href="#DejaVuSans-61" transform="translate(375.732422 0)"/>
      <use xlink:href="#DejaVuSans-6c" transform="translate(437.011719 0)"/>
      <use xlink:href="#DejaVuSans-20" transform="translate(464.794922 0)"/>
      <use xlink:href="#DejaVuSans-63" transform="translate(496.582031 0)"/>
      <use xlink:href="#DejaVuSans-6f" transform="translate(551.5625 0)"/>
      <use xlink:href="#DejaVuSans-76" transform="translate(612.744141 0)"/>
      <use xlink:href="#DejaVuSans-65" transform="translate(671.923828 0)"/>
      <use xlink:href="#DejaVuSans-72" transform="translate(733.447266 0)"/>
      <use xlink:href="#DejaVuSans-61" transform="translate(774.560547 0)"/>
      <use xlink:href="#DejaVuSans-67" transform="translate(835.839844 0)"/>
      <use xlink:href="#DejaVuSans-65" transform="translate(899.316406 0)"/>
     </g>
    </g>
   </g>
   <g id="line2d_26">
    <path d="M 60.293906 145.603368 
L 399.753906 145.603368 
" clip-path="url(#p69cfd4246c)" style="fill: none; stroke: #dc2626; stroke-width: 2; stroke-linecap: square"/>
   </g>
   <g id="patch_4">
    <path d="M 60.293906 308.3395 
L 60.293906 35.7555 
" style="fill: none; stroke: #000000; stroke-width: 0.8; stroke-linejoin: miter; stroke-linecap: square"/>
   </g>
   <g id="patch_5">
    <path d="M 60.293906 308.3395 
L 399.753906 308.3395 
" style="fill: none; stroke: #000000; stroke-width: 0.8; stroke-linejoin: miter; stroke-linecap: square"/>
   </g>
   <g id="LineCollection_1">
    <path d="M 91.153906 298.508554 
L 91.153906 273.620598 
" clip-path="url(#p69cfd4246c)" style="fill: none; stroke: #2563eb; stroke-width: 2"/>
    <path d="M 276.313906 145.201518 
L 276.313906 121.577181 
" clip-path="url(#p69cfd4246c)" style="fill: none; stroke: #2563eb; stroke-width: 2"/>
    <path d="M 338.033906 101.41831 
L 338.033906 82.837472 
" clip-path="url(#p69cfd4246c)" style="fill: none; stroke: #2563eb; stroke-width: 2"/>
    <path d="M 368.893906 68.11789 
L 368.893906 56.320522 
" clip-path="url(#p69cfd4246c)" style="fill: none; stroke: #2563eb; stroke-width: 2"/>
   </g>
   <g id="line2d_27">
    <defs>
     <path id="m9452a02375" d="M 4 0 
L -4 -0 
" style="stroke: #2563eb"/>
    </defs>
    <g clip-path="url(#p69cfd4246c)">
     <use xlink:href="#m9452a02375" x="91.153906" y="298.508554" style="fill: #2563eb; stroke: #2563eb"/>
     <use xlink:href="#m9452a02375" x="276.313906" y="145.201518" style="fill: #2563eb; stroke: #2563eb"/>
     <use xlink:href="#m9452a02375" x="338.033906" y="101.41831" style="fill: #2563eb; stroke: #2563eb"/>
     <use xlink:href="#m9452a02375" x="368.893906" y="68.11789" style="fill: #2563eb; stroke: #2563eb"/>
    </g>
   </g>
   <g id="line2d_28">
    <g clip-path="url(#p69cfd4246c)">
     <use xlink:href="#m9452a02375" x="91.153906" y="273.620598" style="fill: #2563eb; stroke: #2563eb"/>
     <use xlink:href="#m9452a02375" x="276.313906" y="121.577181" style="fill: #2563eb; stroke: #2563eb"/>
     <use xlink:href="#m9452a02375" x="338.033906" y="82.837472" style="fill: #2563eb; stroke: #2563eb"/>
     <use xlink:href="#m9452a02375" x="368.893906" y="56.320522" style="fill: #2563eb; stroke: #2563eb"/>
    </g>
   </g>
   <g id="text_15">
    <!-- Coverage calibration: CQR vs raw quantile interval -->
    <g transform="translate(77.905156 16.318125) scale(0.12 -0.12)">
     <defs>
      <path id="DejaVuSans-43" d="M 4122 4306 
L 4122 3641 
Q 3803 3938 3442 4084 
Q 3081 4231 2675 4231 
Q 1875 4231 1450 3742 
Q 1025 3253 1025 2328 
Q 1025 1406 1450 917 
Q 1875 428 2675 428 
Q 3081 428 3442 575 
Q 3803 722 4122 1019 
L 4122 359 
Q 3791 134 3420 21 
Q 3050 -91 2638 -91 
Q 1578 -91 968 557 
Q 359 1206 359 2328 
Q 359 3453 968 4101 
Q 1578 4750 2638 4750 
Q 3056 4750 3426 4639 
Q 3797 4528 4122 4306 
z
" transform="scale(0.015625)"/>
      <path id="DejaVuSans-62" d="M 3116 1747 
Q 3116 2381 2855 2742 
Q 2594 3103 2138 3103 
Q 1681 3103 1420 2742 
Q 1159 2381 1159 1747 
Q 1159 1113 1420 752 
Q 1681 391 2138 391 
Q 2594 391 2855 752 
Q 3116 1113 3116 1747 
z
M 1159 2969 
Q 1341 3281 1617 3432 
Q 1894 3584 2278 3584 
Q 2916 3584 3314 3078 
Q 3713 2572 3713 1747 
Q 3713 922 3314 415 
Q 2916 -91 2278 -91 
Q 1894 -91 1617 61 
Q 1341 213 1159 525 
L 1159 0 
L 581 0 
L 581 4863 
L 1159 4863 
L 1159 2969 
z
" transform="scale(0.015625)"/>
      <path id="DejaVuSans-74" d="M 1172 4494 
L 1172 3500 
L 2356 3500 
L 2356 3053 
L 1172 3053 
L 1172 1153 
Q 1172 725 1289 603 
Q 1406 481 1766 481 
L 2356 481 
L 2356 0 
L 1766 0 
Q 1100 0 847 248 
Q 594 497 594 1153 
L 594 3053 
L 172 3053 
L 172 3500 
L 594 3500 
L 594 4494 
L 1172 4494 
z
" transform="scale(0.015625)"/>
      <path id="DejaVuSans-3a" d="M 750 794 
L 1409 794 
L 1409 0 
L 750 0 
L 750 794 
z
M 750 3309 
L 1409 3309 
L 1409 2516 
L 750 2516 
L 750 3309 
z
" transform="scale(0.015625)"/>
      <path id="DejaVuSans-51" d="M 2522 4238 
Q 1834 4238 1429 3725 
Q 1025 3213 1025 2328 
Q 1025 1447 1429 934 
Q 1834 422 2522 422 
Q 3209 422 3611 934 
Q 4013 1447 4013 2328 
Q 4013 3213 3611 3725 
Q 3209 4238 2522 4238 
z
M 3406 84 
L 4238 -825 
L 3475 -825 
L 2784 -78 
Q 2681 -84 2626 -87 
Q 2572 -91 2522 -91 
Q 1538 -91 948 567 
Q 359 1225 359 2328 
Q 359 3434 948 4092 
Q 1538 4750 2522 4750 
Q 3503 4750 4090 4092 
Q 4678 3434 4678 2328 
Q 4678 1516 4351 937 
Q 4025 359 3406 84 
z
" transform="scale(0.015625)"/>
      <path id="DejaVuSans-52" d="M 2841 2188 
Q 3044 2119 3236 1894 
Q 3428 1669 3622 1275 
L 4263 0 
L 3584 0 
L 2988 1197 
Q 2756 1666 2539 1819 
Q 2322 1972 1947 1972 
L 1259 1972 
L 1259 0 
L 628 0 
L 628 4666 
L 2053 4666 
Q 2853 4666 3247 4331 
Q 3641 3997 3641 3322 
Q 3641 2881 3436 2590 
Q 3231 2300 2841 2188 
z
M 1259 4147 
L 1259 2491 
L 2053 2491 
Q 2509 2491 2742 2702 
Q 2975 2913 2975 3322 
Q 2975 3731 2742 3939 
Q 2509 4147 2053 4147 
L 1259 4147 
z
" transform="scale(0.015625)"/>
      <path id="DejaVuSans-73" d="M 2834 3397 
L 2834 2853 
Q 2591 2978 2328 3040 
Q 2066 3103 1784 3103 
Q 1356 3103 1142 2972 
Q 928 2841 928 2578 
Q 928 2378 1081 2264 
Q 1234 2150 1697 2047 
L 1894 2003 
Q 2506 1872 2764 1633 
Q 3022 1394 3022 966 
Q 3022 478 2636 193 
Q 2250 -91 1575 -91 
Q 1294 -91 989 -36 
Q 684 19 347 128 
L 347 722 
Q 666 556 975 473 
Q 1284 391 1588 391 
Q 1994 391 2212 530 
Q 2431 669 2431 922 
Q 2431 1156 2273 1281 
Q 2116 1406 1581 1522 
L 1381 1569 
Q 847 1681 609 1914 
Q 372 2147 372 2553 
Q 372 3047 722 3315 
Q 1072 3584 1716 3584 
Q 2034 3584 2315 3537 
Q 2597 3491 2834 3397 
z
" transform="scale(0.015625)"/>
      <path id="DejaVuSans-77" d="M 269 3500 
L 844 3500 
L 1563 769 
L 2278 3500 
L 2956 3500 
L 3675 769 
L 4391 3500 
L 4966 3500 
L 4050 0 
L 3372 0 
L 2619 2869 
L 1863 0 
L 1184 0 
L 269 3500 
z
" transform="scale(0.015625)"/>
      <path id="DejaVuSans-71" d="M 947 1747 
Q 947 1113 1208 752 
Q 1469 391 1925 391 
Q 2381 391 2643 752 
Q 2906 1113 2906 1747 
Q 2906 2381 2643 2742 
Q 2381 3103 1925 3103 
Q 1469 3103 1208 2742 
Q 947 2381 947 1747 
z
M 2906 525 
Q 2725 213 2448 61 
Q 2172 -91 1784 -91 
Q 1150 -91 751 415 
Q 353 922 353 1747 
Q 353 2572 751 3078 
Q 1150 3584 1784 3584 
Q 2172 3584 2448 3432 
Q 2725 3281 2906 2969 
L 2906 3500 
L 3481 3500 
L 3481 -1331 
L 2906 -1331 
L 2906 525 
z
" transform="scale(0.015625)"/>
      <path id="DejaVuSans-75" d="M 544 1381 
L 544 3500 
L 1119 3500 
L 1119 1403 
Q 1119 906 1312 657 
Q 1506 409 1894 409 
Q 2359 409 2629 706 
Q 2900 1003 2900 1516 
L 2900 3500 
L 3475 3500 
L 3475 0 
L 2900 0 
L 2900 538 
Q 2691 219 2414 64 
Q 2138 -91 1772 -91 
Q 1169 -91 856 284 
Q 544 659 544 1381 
z
M 1991 3584 
L 1991 3584 
z
" transform="scale(0.015625)"/>
     </defs>
     <use xlink:href="#DejaVuSans-43"/>
     <use xlink:href="#DejaVuSans-6f" transform="translate(69.824219 0)"/>
     <use xlink:href="#DejaVuSans-76" transform="translate(131.005859 0)"/>
     <use xlink:href="#DejaVuSans-65" transform="translate(190.185547 0)"/>
     <use xlink:href="#DejaVuSans-72" transform="translate(251.708984 0)"/>
     <use xlink:href="#DejaVuSans-61" transform="translate(292.822266 0)"/>
     <use xlink:href="#DejaVuSans-67" transform="translate(354.101562 0)"/>
     <use xlink:href="#DejaVuSans-65" transform="translate(417.578125 0)"/>
     <use xlink:href="#DejaVuSans-20" transform="translate(479.101562 0)"/>
     <use xlink:href="#DejaVuSans-63" transform="translate(510.888672 0)"/>
     <use xlink:href="#DejaVuSans-61" transform="translate(565.869141 0)"/>
     <use xlink:href="#DejaVuSans-6c" transform="translate(627.148438 0)"/>
     <use xlink:href="#DejaVuSans-69" transform="translate(654.931641 0)"/>
     <use xlink:href="#DejaVuSans-62" transform="translate(682.714844 0)"/>
     <use xlink:href="#DejaVuSans-72" transform="translate(746.191406 0)"/>
     <use xlink:href="#DejaVuSans-61" transform="translate(787.304688 0)"/>
     <use xlink:href="#DejaVuSans-74" transform="translate(848.583984 0)"/>
     <use xlink:href="#DejaVuSans-69" transform="translate(887.792969 0)"/>
     <use xlink:href="#DejaVuSans-6f" transform="translate(915.576172 0)"/>
     <use xlink:href="#DejaVuSans-6e" transform="translate(976.757812 0)"/>
     <use xlink:href="#DejaVuSans-3a" transform="translate(1040.136719 0)"/>
     <use xlink:href="#DejaVuSans-20" transform="translate(1073.828125 0)"/>
     <use xlink:href="#DejaVuSans-43" transform="translate(1105.615234 0)"/>
     <use xlink:href="#DejaVuSans-51" transform="translate(1175.439453 0)"/>
     <use xlink:href="#DejaVuSans-52" transform="translate(1254.150391 0)"/>
     <use xlink:href="#DejaVuSans-20" transform="translate(1323.632812 0)"/>
     <use xlink:href="#DejaVuSans-76" transform="translate(1355.419922 0)"/>
     <use xlink:href="#DejaVuSans-73" transform="translate(1414.599609 0)"/>
     <use xlink:href="#DejaVuSans-20" transform="translate(1466.699219 0)"/>
     <use xlink:href="#DejaVuSans-72" transform="translate(1498.486328 0)"/>
     <use xlink:href="#DejaVuSans-61" transform="translate(1539.599609 0)"/>
     <use xlink:href="#DejaVuSans-77" transform="translate(1600.878906 0)"/>
     <use xlink:href="#DejaVuSans-20" transform="translate(1682.666016 0)"/>
     <use xlink:href="#DejaVuSans-71" transform="translate(1714.453125 0)"/>
     <use xlink:href="#DejaVuSans-75" transform="translate(1777.929688 0)"/>
     <use xlink:href="#DejaVuSans-61" transform="translate(1841.308594 0)"/>
     <use xlink:href="#DejaVuSans-6e" transform="translate(1902.587891 0)"/>
     <use xlink:href="#DejaVuSans-74" transform="translate(1965.966797 0)"/>
     <use xlink:href="#DejaVuSans-69" transform="translate(2005.175781 0)"/>
     <use xlink:href="#DejaVuSans-6c" transform="translate(2032.958984 0)"/>
     <use xlink:href="#DejaVuSans-65" transform="translate(2060.742188 0)"/>
     <use xlink:href="#DejaVuSans-20" transform="translate(2122.265625 0)"/>
     <use xlink:href="#DejaVuSans-69" transform="translate(2154.052734 0)"/>
     <use xlink:href="#DejaVuSans-6e" transform="translate(2181.835938 0)"/>
     <use xlink:href="#DejaVuSans-74" transform="translate(2245.214844 0)"/>
     <use xlink:href="#DejaVuSans-65" transform="translate(2284.423828 0)"/>
     <use xlink:href="#DejaVuSans-72" transform="translate(2345.947266 0)"/>
     <use xlink:href="#DejaVuSans-76" transform="translate(2387.060547 0)"/>
     <use xlink:href="#DejaVuSans-61" transform="translate(2446.240234 0)"/>
     <use xlink:href="#DejaVuSans-6c" transform="translate(2507.519531 0)"/>
    </g>
    <!-- CQR achieves the target; raw quantile chronically under-covers. -->
    <g transform="translate(37.955469 29.7555) scale(0.12 -0.12)">
     <defs>
      <path id="DejaVuSans-68" d="M 3513 2113 
L 3513 0 
L 2938 0 
L 2938 2094 
Q 2938 2591 2744 2837 
Q 2550 3084 2163 3084 
Q 1697 3084 1428 2787 
Q 1159 2491 1159 1978 
L 1159 0 
L 581 0 
L 581 4863 
L 1159 4863 
L 1159 2956 
Q 1366 3272 1645 3428 
Q 1925 3584 2291 3584 
Q 2894 3584 3203 3211 
Q 3513 2838 3513 2113 
z
" transform="scale(0.015625)"/>
      <path id="DejaVuSans-3b" d="M 750 3309 
L 1409 3309 
L 1409 2516 
L 750 2516 
L 750 3309 
z
M 750 794 
L 1409 794 
L 1409 256 
L 897 -744 
L 494 -744 
L 750 256 
L 750 794 
z
" transform="scale(0.015625)"/>
      <path id="DejaVuSans-79" d="M 2059 -325 
Q 1816 -950 1584 -1140 
Q 1353 -1331 966 -1331 
L 506 -1331 
L 506 -850 
L 844 -850 
Q 1081 -850 1212 -737 
Q 1344 -625 1503 -206 
L 1606 56 
L 191 3500 
L 800 3500 
L 1894 763 
L 2988 3500 
L 3597 3500 
L 2059 -325 
z
" transform="scale(0.015625)"/>
      <path id="DejaVuSans-64" d="M 2906 2969 
L 2906 4863 
L 3481 4863 
L 3481 0 
L 2906 0 
L 2906 525 
Q 2725 213 2448 61 
Q 2172 -91 1784 -91 
Q 1150 -91 751 415 
Q 353 922 353 1747 
Q 353 2572 751 3078 
Q 1150 3584 1784 3584 
Q 2172 3584 2448 3432 
Q 2725 3281 2906 2969 
z
M 947 1747 
Q 947 1113 1208 752 
Q 1469 391 1925 391 
Q 2381 391 2643 752 
Q 2906 1113 2906 1747 
Q 2906 2381 2643 2742 
Q 2381 3103 1925 3103 
Q 1469 3103 1208 2742 
Q 947 2381 947 1747 
z
" transform="scale(0.015625)"/>
      <path id="DejaVuSans-2d" d="M 313 2009 
L 1997 2009 
L 1997 1497 
L 313 1497 
L 313 2009 
z
" transform="scale(0.015625)"/>
      <path id="DejaVuSans-2e" d="M 684 794 
L 1344 794 
L 1344 0 
L 684 0 
L 684 794 
z
" transform="scale(0.015625)"/>
     </defs>
     <use xlink:href="#DejaVuSans-43"/>
     <use xlink:href="#DejaVuSans-51" transform="translate(69.824219 0)"/>
     <use xlink:href="#DejaVuSans-52" transform="translate(148.535156 0)"/>
     <use xlink:href="#DejaVuSans-20" transform="translate(218.017578 0)"/>
     <use xlink:href="#DejaVuSans-61" transform="translate(249.804688 0)"/>
     <use xlink:href="#DejaVuSans-63" transform="translate(311.083984 0)"/>
     <use xlink:href="#DejaVuSans-68" transform="translate(366.064453 0)"/>
     <use xlink:href="#DejaVuSans-69" transform="translate(429.443359 0)"/>
     <use xlink:href="#DejaVuSans-65" transform="translate(457.226562 0)"/>
     <use xlink:href="#DejaVuSans-76" transform="translate(518.75 0)"/>
     <use xlink:href="#DejaVuSans-65" transform="translate(577.929688 0)"/>
     <use xlink:href="#DejaVuSans-73" transform="translate(639.453125 0)"/>
     <use xlink:href="#DejaVuSans-20" transform="translate(691.552734 0)"/>
     <use xlink:href="#DejaVuSans-74" transform="translate(723.339844 0)"/>
     <use xlink:href="#DejaVuSans-68" transform="translate(762.548828 0)"/>
     <use xlink:href="#DejaVuSans-65" transform="translate(825.927734 0)"/>
     <use xlink:href="#DejaVuSans-20" transform="translate(887.451172 0)"/>
     <use xlink:href="#DejaVuSans-74" transform="translate(919.238281 0)"/>
     <use xlink:href="#DejaVuSans-61" transform="translate(958.447266 0)"/>
     <use xlink:href="#DejaVuSans-72" transform="translate(1019.726562 0)"/>
     <use xlink:href="#DejaVuSans-67" transform="translate(1059.089844 0)"/>
     <use xlink:href="#DejaVuSans-65" transform="translate(1122.566406 0)"/>
     <use xlink:href="#DejaVuSans-74" transform="translate(1184.089844 0)"/>
     <use xlink:href="#DejaVuSans-3b" transform="translate(1223.298828 0)"/>
     <use xlink:href="#DejaVuSans-20" transform="translate(1256.990234 0)"/>
     <use xlink:href="#DejaVuSans-72" transform="translate(1288.777344 0)"/>
     <use xlink:href="#DejaVuSans-61" transform="translate(1329.890625 0)"/>
     <use xlink:href="#DejaVuSans-77" transform="translate(1391.169922 0)"/>
     <use xlink:href="#DejaVuSans-20" transform="translate(1472.957031 0)"/>
     <use xlink:href="#DejaVuSans-71" transform="translate(1504.744141 0)"/>
     <use xlink:href="#DejaVuSans-75" transform="translate(1568.220703 0)"/>
     <use xlink:href="#DejaVuSans-61" transform="translate(1631.599609 0)"/>
     <use xlink:href="#DejaVuSans-6e" transform="translate(1692.878906 0)"/>
     <use xlink:href="#DejaVuSans-74" transform="translate(1756.257812 0)"/>
     <use xlink:href="#DejaVuSans-69" transform="translate(1795.466797 0)"/>
     <use xlink:href="#DejaVuSans-6c" transform="translate(1823.25 0)"/>
     <use xlink:href="#DejaVuSans-65" transform="translate(1851.033203 0)"/>
     <use xlink:href="#DejaVuSans-20" transform="translate(1912.556641 0)"/>
     <use xlink:href="#DejaVuSans-63" transform="translate(1944.34375 0)"/>
     <use xlink:href="#DejaVuSans-68" transform="translate(1999.324219 0)"/>
     <use xlink:href="#DejaVuSans-72" transform="translate(2062.703125 0)"/>
     <use xlink:href="#DejaVuSans-6f" transform="translate(2101.566406 0)"/>
     <use xlink:href="#DejaVuSans-6e" transform="translate(2162.748047 0)"/>
     <use xlink:href="#DejaVuSans-69" transform="translate(2226.126953 0)"/>
     <use xlink:href="#DejaVuSans-63" transform="translate(2253.910156 0)"/>
     <use xlink:href="#DejaVuSans-61" transform="translate(2308.890625 0)"/>
     <use xlink:href="#DejaVuSans-6c" transform="translate(2370.169922 0)"/>
     <use xlink:href="#DejaVuSans-6c" transform="translate(2397.953125 0)"/>
     <use xlink:href="#DejaVuSans-79" transform="translate(2425.736328 0)"/>
     <use xlink:href="#DejaVuSans-20" transform="translate(2484.916016 0)"/>
     <use xlink:href="#DejaVuSans-75" transform="translate(2516.703125 0)"/>
     <use xlink:href="#DejaVuSans-6e" transform="translate(2580.082031 0)"/>
     <use xlink:href="#DejaVuSans-64" transform="translate(2643.460938 0)"/>
     <use xlink:href="#DejaVuSans-65" transform="translate(2706.9375 0)"/>
     <use xlink:href="#DejaVuSans-72" transform="translate(2768.460938 0)"/>
     <use xlink:href="#DejaVuSans-2d" transform="translate(2803.199219 0)"/>
     <use xlink:href="#DejaVuSans-63" transform="translate(2839.283203 0)"/>
     <use xlink:href="#DejaVuSans-6f" transform="translate(2894.263672 0)"/>
     <use xlink:href="#DejaVuSans-76" transform="translate(2955.445312 0)"/>
     <use xlink:href="#DejaVuSans-65" transform="translate(3014.625 0)"/>
     <use xlink:href="#DejaVuSans-72" transform="translate(3076.148438 0)"/>
     <use xlink:href="#DejaVuSans-73" transform="translate(3117.261719 0)"/>
     <use xlink:href="#DejaVuSans-2e" transform="translate(3169.361328 0)"/>
    </g>
   </g>
   <g id="line2d_29">
    <path d="M 91.153906 286.064576 
L 276.313906 133.38935 
L 338.033906 92.127891 
L 368.893906 62.219206 
" clip-path="url(#p69cfd4246c)" style="fill: none; stroke: #2563eb; stroke-width: 2; stroke-linecap: square"/>
    <defs>
     <path id="md9f3e3861b" d="M 0 3 
C 0.795609 3 1.55874 2.683901 2.12132 2.12132 
C 2.683901 1.55874 3 0.795609 3 0 
C 3 -0.795609 2.683901 -1.55874 2.12132 -2.12132 
C 1.55874 -2.683901 0.795609 -3 0 -3 
C -0.795609 -3 -1.55874 -2.683901 -2.12132 -2.12132 
C -2.683901 -1.55874 -3 -0.795609 -3 0 
C -3 0.795609 -2.683901 1.55874 -2.12132 2.12132 
C -1.55874 2.683901 -0.795609 3 0 3 
z
" style="stroke: #2563eb"/>
    </defs>
    <g clip-path="url(#p69cfd4246c)">
     <use xlink:href="#md9f3e3861b" x="91.153906" y="286.064576" style="fill: #2563eb; stroke: #2563eb"/>
     <use xlink:href="#md9f3e3861b" x="276.313906" y="133.38935" style="fill: #2563eb; stroke: #2563eb"/>
     <use xlink:href="#md9f3e3861b" x="338.033906" y="92.127891" style="fill: #2563eb; stroke: #2563eb"/>
     <use xlink:href="#md9f3e3861b" x="368.893906" y="62.219206" style="fill: #2563eb; stroke: #2563eb"/>
    </g>
   </g>
   <g id="legend_1">
    <g id="patch_6">
     <path d="M 66.593906 82.586437 
L 288.051562 82.586437 
Q 289.851562 82.586437 289.851562 80.786437 
L 289.851562 42.0555 
Q 289.851562 40.2555 288.051562 40.2555 
L 66.593906 40.2555 
Q 64.793906 40.2555 64.793906 42.0555 
L 64.793906 80.786437 
Q 64.793906 82.586437 66.593906 82.586437 
z
" style="fill: #ffffff; opacity: 0.8; stroke: #cccccc; stroke-linejoin: miter"/>
    </g>
    <g id="line2d_30">
     <path d="M 68.393906 47.544094 
L 77.393906 47.544094 
L 86.393906 47.544094 
" style="fill: none; stroke-dasharray: 4.44,1.92; stroke-dashoffset: 0; stroke: #16a34a; stroke-width: 1.2"/>
    </g>
    <g id="text_16">
     <!-- Perfect calibration (y = x) -->
     <g transform="translate(93.593906 50.694094) scale(0.09 -0.09)">
      <defs>
       <path id="DejaVuSans-50" d="M 1259 4147 
L 1259 2394 
L 2053 2394 
Q 2494 2394 2734 2622 
Q 2975 2850 2975 3272 
Q 2975 3691 2734 3919 
Q 2494 4147 2053 4147 
L 1259 4147 
z
M 628 4666 
L 2053 4666 
Q 2838 4666 3239 4311 
Q 3641 3956 3641 3272 
Q 3641 2581 3239 2228 
Q 2838 1875 2053 1875 
L 1259 1875 
L 1259 0 
L 628 0 
L 628 4666 
z
" transform="scale(0.015625)"/>
       <path id="DejaVuSans-66" d="M 2375 4863 
L 2375 4384 
L 1825 4384 
Q 1516 4384 1395 4259 
Q 1275 4134 1275 3809 
L 1275 3500 
L 2222 3500 
L 2222 3053 
L 1275 3053 
L 1275 0 
L 697 0 
L 697 3053 
L 147 3053 
L 147 3500 
L 697 3500 
L 697 3744 
Q 697 4328 969 4595 
Q 1241 4863 1831 4863 
L 2375 4863 
z
" transform="scale(0.015625)"/>
       <path id="DejaVuSans-28" d="M 1984 4856 
Q 1566 4138 1362 3434 
Q 1159 2731 1159 2009 
Q 1159 1288 1364 580 
Q 1569 -128 1984 -844 
L 1484 -844 
Q 1016 -109 783 600 
Q 550 1309 550 2009 
Q 550 2706 781 3412 
Q 1013 4119 1484 4856 
L 1984 4856 
z
" transform="scale(0.015625)"/>
       <path id="DejaVuSans-3d" d="M 678 2906 
L 4684 2906 
L 4684 2381 
L 678 2381 
L 678 2906 
z
M 678 1631 
L 4684 1631 
L 4684 1100 
L 678 1100 
L 678 1631 
z
" transform="scale(0.015625)"/>
       <path id="DejaVuSans-78" d="M 3513 3500 
L 2247 1797 
L 3578 0 
L 2900 0 
L 1881 1375 
L 863 0 
L 184 0 
L 1544 1831 
L 300 3500 
L 978 3500 
L 1906 2253 
L 2834 3500 
L 3513 3500 
z
" transform="scale(0.015625)"/>
       <path id="DejaVuSans-29" d="M 513 4856 
L 1013 4856 
Q 1481 4119 1714 3412 
Q 1947 2706 1947 2009 
Q 1947 1309 1714 600 
Q 1481 -109 1013 -844 
L 513 -844 
Q 928 -128 1133 580 
Q 1338 1288 1338 2009 
Q 1338 2731 1133 3434 
Q 928 4138 513 4856 
z
" transform="scale(0.015625)"/>
      </defs>
      <use xlink:href="#DejaVuSans-50"/>
      <use xlink:href="#DejaVuSans-65" transform="translate(56.677734 0)"/>
      <use xlink:href="#DejaVuSans-72" transform="translate(118.201172 0)"/>
      <use xlink:href="#DejaVuSans-66" transform="translate(159.314453 0)"/>
      <use xlink:href="#DejaVuSans-65" transform="translate(194.519531 0)"/>
      <use xlink:href="#DejaVuSans-63" transform="translate(256.042969 0)"/>
      <use xlink:href="#DejaVuSans-74" transform="translate(311.023438 0)"/>
      <use xlink:href="#DejaVuSans-20" transform="translate(350.232422 0)"/>
      <use xlink:href="#DejaVuSans-63" transform="translate(382.019531 0)"/>
      <use xlink:href="#DejaVuSans-61" transform="translate(437 0)"/>
      <use xlink:href="#DejaVuSans-6c" transform="translate(498.279297 0)"/>
      <use xlink:href="#DejaVuSans-69" transform="translate(526.0625 0)"/>
      <use xlink:href="#DejaVuSans-62" transform="translate(553.845703 0)"/>
      <use xlink:href="#DejaVuSans-72" transform="translate(617.322266 0)"/>
      <use xlink:href="#DejaVuSans-61" transform="translate(658.435547 0)"/>
      <use xlink:href="#DejaVuSans-74" transform="translate(719.714844 0)"/>
      <use xlink:href="#DejaVuSans-69" transform="translate(758.923828 0)"/>
      <use xlink:href="#DejaVuSans-6f" transform="translate(786.707031 0)"/>
      <use xlink:href="#DejaVuSans-6e" transform="translate(847.888672 0)"/>
      <use xlink:href="#DejaVuSans-20" transform="translate(911.267578 0)"/>
      <use xlink:href="#DejaVuSans-28" transform="translate(943.054688 0)"/>
      <use xlink:href="#DejaVuSans-79" transform="translate(982.068359 0)"/>
      <use xlink:href="#DejaVuSans-20" transform="translate(1041.248047 0)"/>
      <use xlink:href="#DejaVuSans-3d" transform="translate(1073.035156 0)"/>
      <use xlink:href="#DejaVuSans-20" transform="translate(1156.824219 0)"/>
      <use xlink:href="#DejaVuSans-78" transform="translate(1188.611328 0)"/>
      <use xlink:href="#DejaVuSans-29" transform="translate(1247.791016 0)"/>
     </g>
    </g>
    <g id="line2d_31">
     <path d="M 68.393906 60.754406 
L 77.393906 60.754406 
L 86.393906 60.754406 
" style="fill: none; stroke: #dc2626; stroke-width: 2; stroke-linecap: square"/>
    </g>
    <g id="text_17">
     <!-- Raw quantile (q0.1–q0.9): 77.8% ± 4.4% -->
     <g transform="translate(93.593906 63.904406) scale(0.09 -0.09)">
      <defs>
       <path id="DejaVuSans-2013" d="M 313 1978 
L 2888 1978 
L 2888 1528 
L 313 1528 
L 313 1978 
z
" transform="scale(0.015625)"/>
       <path id="DejaVuSans-b1" d="M 2944 4013 
L 2944 2803 
L 4684 2803 
L 4684 2272 
L 2944 2272 
L 2944 1063 
L 2419 1063 
L 2419 2272 
L 678 2272 
L 678 2803 
L 2419 2803 
L 2419 4013 
L 2944 4013 
z
M 678 531 
L 4684 531 
L 4684 0 
L 678 0 
L 678 531 
z
" transform="scale(0.015625)"/>
       <path id="DejaVuSans-34" d="M 2419 4116 
L 825 1625 
L 2419 1625 
L 2419 4116 
z
M 2253 4666 
L 3047 4666 
L 3047 1625 
L 3713 1625 
L 3713 1100 
L 3047 1100 
L 3047 0 
L 2419 0 
L 2419 1100 
L 313 1100 
L 313 1709 
L 2253 4666 
z
" transform="scale(0.015625)"/>
      </defs>
      <use xlink:href="#DejaVuSans-52"/>
      <use xlink:href="#DejaVuSans-61" transform="translate(67.232422 0)"/>
      <use xlink:href="#DejaVuSans-77" transform="translate(128.511719 0)"/>
      <use xlink:href="#DejaVuSans-20" transform="translate(210.298828 0)"/>
      <use xlink:href="#DejaVuSans-71" transform="translate(242.085938 0)"/>
      <use xlink:href="#DejaVuSans-75" transform="translate(305.5625 0)"/>
      <use xlink:href="#DejaVuSans-61" transform="translate(368.941406 0)"/>
      <use xlink:href="#DejaVuSans-6e" transform="translate(430.220703 0)"/>
      <use xlink:href="#DejaVuSans-74" transform="translate(493.599609 0)"/>
      <use xlink:href="#DejaVuSans-69" transform="translate(532.808594 0)"/>
      <use xlink:href="#DejaVuSans-6c" transform="translate(560.591797 0)"/>
      <use xlink:href="#DejaVuSans-65" transform="translate(588.375 0)"/>
      <use xlink:href="#DejaVuSans-20" transform="translate(649.898438 0)"/>
      <use xlink:href="#DejaVuSans-28" transform="translate(681.685547 0)"/>
      <use xlink:href="#DejaVuSans-71" transform="translate(720.699219 0)"/>
      <use xlink:href="#DejaVuSans-30" transform="translate(784.175781 0)"/>
      <use xlink:href="#DejaVuSans-2e" transform="translate(847.798828 0)"/>
      <use xlink:href="#DejaVuSans-31" transform="translate(879.585938 0)"/>
      <use xlink:href="#DejaVuSans-2013" transform="translate(943.208984 0)"/>
      <use xlink:href="#DejaVuSans-71" transform="translate(993.208984 0)"/>
      <use xlink:href="#DejaVuSans-30" transform="translate(1056.685547 0)"/>
      <use xlink:href="#DejaVuSans-2e" transform="translate(1120.308594 0)"/>
      <use xlink:href="#DejaVuSans-39" transform="translate(1152.095703 0)"/>
      <use xlink:href="#DejaVuSans-29" transform="translate(1215.71875 0)"/>
      <use xlink:href="#DejaVuSans-3a" transform="translate(1254.732422 0)"/>
      <use xlink:href="#DejaVuSans-20" transform="translate(1288.423828 0)"/>
      <use xlink:href="#DejaVuSans-37" transform="translate(1320.210938 0)"/>
      <use xlink:href="#DejaVuSans-37" transform="translate(1383.833984 0)"/>
      <use xlink:href="#DejaVuSans-2e" transform="translate(1447.457031 0)"/>
      <use xlink:href="#DejaVuSans-38" transform="translate(1479.244141 0)"/>
      <use xlink:href="#DejaVuSans-25" transform="translate(1542.867188 0)"/>
      <use xlink:href="#DejaVuSans-20" transform="translate(1637.886719 0)"/>
      <use xlink:href="#DejaVuSans-b1" transform="translate(1669.673828 0)"/>
      <use xlink:href="#DejaVuSans-20" transform="translate(1753.462891 0)"/>
      <use xlink:href="#DejaVuSans-34" transform="translate(1785.25 0)"/>
      <use xlink:href="#DejaVuSans-2e" transform="translate(1848.873047 0)"/>
      <use xlink:href="#DejaVuSans-34" transform="translate(1880.660156 0)"/>
      <use xlink:href="#DejaVuSans-25" transform="translate(1944.283203 0)"/>
     </g>
    </g>
    <g id="LineCollection_2">
     <path d="M 77.393906 78.464719 
L 77.393906 69.464719 
" style="fill: none; stroke: #2563eb; stroke-width: 2"/>
    </g>
    <g id="line2d_32">
     <g>
      <use xlink:href="#m9452a02375" x="77.393906" y="78.464719" style="fill: #2563eb; stroke: #2563eb"/>
     </g>
    </g>
    <g id="line2d_33">
     <g>
      <use xlink:href="#m9452a02375" x="77.393906" y="69.464719" style="fill: #2563eb; stroke: #2563eb"/>
     </g>
    </g>
    <g id="line2d_34">
     <path d="M 68.393906 73.964719 
L 86.393906 73.964719 
" style="fill: none; stroke: #2563eb; stroke-width: 2; stroke-linecap: square"/>
    </g>
    <g id="line2d_35">
     <g>
      <use xlink:href="#md9f3e3861b" x="77.393906" y="73.964719" style="fill: #2563eb; stroke: #2563eb"/>
     </g>
    </g>
    <g id="text_18">
     <!-- CQR (Gauge) — mean ± std over 10 seeds -->
     <g transform="translate(93.593906 77.114719) scale(0.09 -0.09)">
      <defs>
       <path id="DejaVuSans-47" d="M 3809 666 
L 3809 1919 
L 2778 1919 
L 2778 2438 
L 4434 2438 
L 4434 434 
Q 4069 175 3628 42 
Q 3188 -91 2688 -91 
Q 1594 -91 976 548 
Q 359 1188 359 2328 
Q 359 3472 976 4111 
Q 1594 4750 2688 4750 
Q 3144 4750 3555 4637 
Q 3966 4525 4313 4306 
L 4313 3634 
Q 3963 3931 3569 4081 
Q 3175 4231 2741 4231 
Q 1884 4231 1454 3753 
Q 1025 3275 1025 2328 
Q 1025 1384 1454 906 
Q 1884 428 2741 428 
Q 3075 428 3337 486 
Q 3600 544 3809 666 
z
" transform="scale(0.015625)"/>
       <path id="DejaVuSans-2014" d="M 313 1978 
L 6088 1978 
L 6088 1528 
L 313 1528 
L 313 1978 
z
" transform="scale(0.015625)"/>
      </defs>
      <use xlink:href="#DejaVuSans-43"/>
      <use xlink:href="#DejaVuSans-51" transform="translate(69.824219 0)"/>
      <use xlink:href="#DejaVuSans-52" transform="translate(148.535156 0)"/>
      <use xlink:href="#DejaVuSans-20" transform="translate(218.017578 0)"/>
      <use xlink:href="#DejaVuSans-28" transform="translate(249.804688 0)"/>
      <use xlink:href="#DejaVuSans-47" transform="translate(288.818359 0)"/>
      <use xlink:href="#DejaVuSans-61" transform="translate(366.308594 0)"/>
      <use xlink:href="#DejaVuSans-75" transform="translate(427.587891 0)"/>
      <use xlink:href="#DejaVuSans-67" transform="translate(490.966797 0)"/>
      <use xlink:href="#DejaVuSans-65" transform="translate(554.443359 0)"/>
      <use xlink:href="#DejaVuSans-29" transform="translate(615.966797 0)"/>
      <use xlink:href="#DejaVuSans-20" transform="translate(654.980469 0)"/>
      <use xlink:href="#DejaVuSans-2014" transform="translate(686.767578 0)"/>
      <use xlink:href="#DejaVuSans-20" transform="translate(786.767578 0)"/>
      <use xlink:href="#DejaVuSans-6d" transform="translate(818.554688 0)"/>
      <use xlink:href="#DejaVuSans-65" transform="translate(915.966797 0)"/>
      <use xlink:href="#DejaVuSans-61" transform="translate(977.490234 0)"/>
      <use xlink:href="#DejaVuSans-6e" transform="translate(1038.769531 0)"/>
      <use xlink:href="#DejaVuSans-20" transform="translate(1102.148438 0)"/>
      <use xlink:href="#DejaVuSans-b1" transform="translate(1133.935547 0)"/>
      <use xlink:href="#DejaVuSans-20" transform="translate(1217.724609 0)"/>
      <use xlink:href="#DejaVuSans-73" transform="translate(1249.511719 0)"/>
      <use xlink:href="#DejaVuSans-74" transform="translate(1301.611328 0)"/>
      <use xlink:href="#DejaVuSans-64" transform="translate(1340.820312 0)"/>
      <use xlink:href="#DejaVuSans-20" transform="translate(1404.296875 0)"/>
      <use xlink:href="#DejaVuSans-6f" transform="translate(1436.083984 0)"/>
      <use xlink:href="#DejaVuSans-76" transform="translate(1497.265625 0)"/>
      <use xlink:href="#DejaVuSans-65" transform="translate(1556.445312 0)"/>
      <use xlink:href="#DejaVuSans-72" transform="translate(1617.96875 0)"/>
      <use xlink:href="#DejaVuSans-20" transform="translate(1659.082031 0)"/>
      <use xlink:href="#DejaVuSans-31" transform="translate(1690.869141 0)"/>
      <use xlink:href="#DejaVuSans-30" transform="translate(1754.492188 0)"/>
      <use xlink:href="#DejaVuSans-20" transform="translate(1818.115234 0)"/>
      <use xlink:href="#DejaVuSans-73" transform="translate(1849.902344 0)"/>
      <use xlink:href="#DejaVuSans-65" transform="translate(1902.001953 0)"/>
      <use xlink:href="#DejaVuSans-65" transform="translate(1963.525391 0)"/>
      <use xlink:href="#DejaVuSans-64" transform="translate(2025.048828 0)"/>
      <use xlink:href="#DejaVuSans-73" transform="translate(2088.525391 0)"/>
     </g>
    </g>
   </g>
  </g>
 </g>
 <defs>
  <clipPath id="p69cfd4246c">
   <rect x="60.293906" y="35.7555" width="339.46" height="272.584"/>
  </clipPath>
 </defs>
</svg>
